#N canvas 190 248 450 300 10;
#X obj 88 233 sys_gui;
#X msg 175 41 set canvas_fill #bac08c;
#X msg 178 191 set msg_cord #ffffff;
#X msg 179 164 set text_color #000000;
#X msg 177 140 set msg_box_fill #f8ef60;
#X msg 176 110 set box_outline #ffffff;
#X msg 179 85 set obj_box_fill #8faa80;
#X msg 178 62 set atom_box_fill #baaa80;
#X obj 152 7 loadbang;
#X connect 1 0 0 0;
#X connect 2 0 0 0;
#X connect 3 0 0 0;
#X connect 4 0 0 0;
#X connect 5 0 0 0;
#X connect 6 0 0 0;
#X connect 7 0 0 0;
#X connect 8 0 7 0;
#X connect 8 0 6 0;
#X connect 8 0 5 0;
#X connect 8 0 4 0;
#X connect 8 0 3 0;
#X connect 8 0 2 0;
#X connect 8 0 1 0;
