#N canvas 250 332 358 279 10;
#X obj 0 -8 cnv 15 350 270 empty empty empty 20 12 0 14 -145561 -66577
0;
#X obj 42 229 sys_gui;
#X msg 129 37 set canvas_fill #bac08c;
#X msg 132 187 set msg_cord #ffffff;
#X msg 133 160 set text_color #000000;
#X msg 131 136 set msg_box_fill #f8ef60;
#X msg 130 106 set box_outline #ffffff;
#X msg 133 81 set obj_box_fill #8faa80;
#X msg 132 58 set atom_box_fill #baaa80;
#X obj 104 1 loadbang;
#X obj 238 240 s pd-color_set.pd;
#X msg 238 215 vis 0;
#X obj 275 201 delay 1000;
#X connect 2 0 1 0;
#X connect 3 0 1 0;
#X connect 4 0 1 0;
#X connect 5 0 1 0;
#X connect 6 0 1 0;
#X connect 7 0 1 0;
#X connect 8 0 1 0;
#X connect 9 0 8 0;
#X connect 9 0 7 0;
#X connect 9 0 6 0;
#X connect 9 0 5 0;
#X connect 9 0 4 0;
#X connect 9 0 3 0;
#X connect 9 0 2 0;
#X connect 9 0 12 0;
#X connect 11 0 10 0;
#X connect 12 0 11 0;
