#N canvas 628 123 633 573 10;
#X obj 277 194 mtx_row 10 8;
#N canvas 18 109 963 499 random8 0;
#X obj 114 204 random 16;
#X obj 174 204 random 16;
#X obj 234 204 random 16;
#X obj 294 204 random 16;
#X obj 355 203 random 16;
#X obj 415 203 random 16;
#X obj 475 203 random 16;
#X obj 535 203 random 16;
#X obj 273 282 pack f f f f f f f f;
#X obj 275 308 outlet;
#X obj 332 119 inlet;
#X obj 330 140 t b b b b b b b b;
#X connect 0 0 8 0;
#X connect 1 0 8 1;
#X connect 2 0 8 2;
#X connect 3 0 8 3;
#X connect 4 0 8 4;
#X connect 5 0 8 5;
#X connect 6 0 8 6;
#X connect 7 0 8 7;
#X connect 8 0 9 0;
#X connect 10 0 11 0;
#X connect 11 0 0 0;
#X connect 11 1 1 0;
#X connect 11 2 2 0;
#X connect 11 3 3 0;
#X connect 11 4 4 0;
#X connect 11 5 5 0;
#X connect 11 6 6 0;
#X connect 11 7 7 0;
#X restore 264 130 pd random8;
#N canvas 18 109 450 300 count10 0;
#X obj 61 34 inlet;
#X obj 73 154 f 0;
#X obj 74 190 + 1;
#X msg 85 118 0;
#X obj 54 76 route reset;
#X msg 23 119 bang;
#X obj 60 230 + 1;
#X obj 58 252 outlet;
#X obj 109 153 mod 10;
#X connect 0 0 4 0;
#X connect 1 0 2 0;
#X connect 1 0 6 0;
#X connect 2 0 8 0;
#X connect 3 0 1 1;
#X connect 4 0 3 0;
#X connect 4 1 5 0;
#X connect 5 0 1 0;
#X connect 6 0 7 0;
#X connect 8 0 1 1;
#X restore 332 130 pd count10;
#X obj 329 63 bng 15 250 50 0 empty empty empty 17 7 0 10 -262144 -1
-1;
#X obj 271 100 t b b;
#X floatatom 361 159 5 0 0 0 - - -;
#X obj 189 371 mtx_print;
#X obj 427 176 bng 15 250 50 0 empty empty empty 17 7 0 10 -262144
-1 -1;
#X obj 292 263 mtx 10 8;
#X obj 469 55 prepend;
#X msg 469 23 1 2 3 4 5 6 7 8;
#X obj 471 76 prepend row;
#X floatatom 564 67 5 0 0 0 - - -;
#X obj 366 387 prepend set;
#X floatatom 476 184 5 1 10 0 - - -;
#X msg 475 212 row \$1;
#X obj 132 147 prepend set;
#X msg 135 168 5 11 1 5 4 1 12 9;
#X obj 297 287 route matrix;
#X msg 362 412 seq 5 13 9 10 7 8 7 0 6;
#X obj 188 344 prepend matrix;
#X obj 366 367 prepend seq;
#X obj 366 347 prepend;
#X obj 363 440 route seq;
#X obj 362 471 list split 1;
#X floatatom 318 516 5 0 0 0 - - -;
#X obj 398 500 prepend set;
#X msg 394 525 13 9 10 7 8 7 0 6;
#X obj 483 275 t f l;
#X obj 390 288 t b f;
#X obj 363 317 list;
#X text 420 323 truque para sincronizar;
#X msg 34 59 read /home/glerm/presets/patterns/espelho.pat;
#X msg 23 221 read presets/patterns/espelho.ptn;
#X msg 3 270 read presets/patterns/t.ptn;
#X connect 0 0 8 0;
#X connect 1 0 0 0;
#X connect 1 0 16 0;
#X connect 2 0 0 1;
#X connect 2 0 5 0;
#X connect 3 0 4 0;
#X connect 4 0 1 0;
#X connect 4 1 2 0;
#X connect 7 0 8 0;
#X connect 8 0 18 0;
#X connect 9 0 11 0;
#X connect 10 0 9 0;
#X connect 11 0 8 0;
#X connect 12 0 9 1;
#X connect 13 0 19 0;
#X connect 14 0 15 0;
#X connect 14 0 29 0;
#X connect 15 0 8 0;
#X connect 16 0 17 0;
#X connect 18 0 20 0;
#X connect 18 1 30 1;
#X connect 19 0 23 0;
#X connect 20 0 6 0;
#X connect 21 0 13 0;
#X connect 22 0 21 0;
#X connect 23 0 24 0;
#X connect 24 0 25 0;
#X connect 24 1 26 0;
#X connect 26 0 27 0;
#X connect 29 0 30 0;
#X connect 29 1 22 1;
#X connect 30 0 22 0;
#X connect 32 0 8 0;
#X connect 33 0 8 0;
#X connect 34 0 8 0;
