#N canvas 0 0 1268 686 10;
#X declare -lib iemmatrix;
#X declare -lib iem_tab;
#X declare -lib iemmatrix;
#X declare -lib iem_tab;
#X floatatom 408 30 5 -12 12 0 - - -;
#X msg 392 48 pitch \$1;
#X floatatom 504 -218 5 1 10 0 - - -;
#X msg 495 -196 pattern \$1;
#X floatatom 411 67 5 1 8 0 - - -;
#X msg 389 88 div \$1;
#X obj 383 -11 pack f f;
#X msg 377 10 tempo \$1 \$2;
#X floatatom 422 -49 5 0 3 0 - - -;
#X floatatom 389 -49 5 50 500 0 - - -;
#X obj 398 -28 bng 15 250 50 0 empty empty empty 17 7 0 10 -262144
-1 -1;
#X msg 380 -77 random \$1;
#X floatatom 384 -97 5 0 8 0 - - -;
#X msg 419 -97 bang;
#X obj 356 -307 tgl 15 0 empty empty empty 17 7 0 10 -262144 -1 -1
0 1;
#X msg 411 133 vol \$1;
#X obj 414 113 hsl 30 15 0 1 0 0 empty empty empty -2 -8 0 10 -260097
-257985 -1 0 1;
#X floatatom 376 127 5 0 0 0 - - -;
#X floatatom 208 -356 5 0 7 0 - - -;
#X msg 209 -338 slice \$1;
#X msg 356 -290 key \$1;
#X msg 547 278 mono2x bang;
#X msg 370 157 normalize bang;
#X obj 245 -262 dac~;
#X obj 328 -252 tgl 20 0 empty empty empty 17 7 0 10 -262144 -13381
-1 0 1;
#X msg 328 -230 seq \$1;
#X floatatom 439 -274 5 0 7 0 - - -;
#X msg 437 -250 slice \$1;
#X obj 267 -164 dac~;
#X obj 83 -291 mininvl;
#X msg 298 -372 preset bulgar.nvl;
#X obj 697 -345 playlist all 400 300 {Helvetica 10 bold} grey darkgreen
black red;
#X msg 735 7 preset \$1;
#X msg 819 -380 location /home/glerm/navalha/presets;
#X msg 303 -327 preset shadebossa.nvl;
#X symbolatom 866 -2 40 0 0 0 - - -;
#X obj 90 -205 mininvl;
#X connect 0 0 1 0;
#X connect 2 0 3 0;
#X connect 3 0 29 1;
#X connect 4 0 5 0;
#X connect 6 0 7 0;
#X connect 8 0 6 1;
#X connect 8 0 10 0;
#X connect 9 0 6 0;
#X connect 10 0 6 0;
#X connect 12 0 11 0;
#X connect 13 0 12 0;
#X connect 14 0 20 0;
#X connect 16 0 15 0;
#X connect 16 0 17 0;
#X connect 18 0 19 0;
#X connect 19 0 29 1;
#X connect 20 0 29 1;
#X connect 24 0 25 0;
#X connect 25 0 29 1;
#X connect 26 0 27 0;
#X connect 29 3 23 0;
#X connect 29 4 23 1;
#X connect 30 0 29 1;
#X connect 31 1 35 0;
#X connect 31 1 32 0;
#X connect 32 0 29 1;
#X connect 33 0 31 0;
#X connect 34 0 29 1;
#X connect 36 3 28 0;
#X connect 36 4 28 1;
