#N canvas 0 0 1268 686 10;
#X declare -lib iemmatrix;
#X declare -lib iem_tab;
#X floatatom 767 -171 5 1 10 0 - - -;
#X msg 766 -150 pattern \$1;
#X obj 923 -538 tgl 15 0 empty empty empty 17 7 0 10 -262144 -1 -1
0 1;
#X msg 497 -319 vol \$1;
#X obj 500 -339 hsl 30 15 0 1 0 0 empty empty empty -2 -8 0 10 -260097
-257985 -1 0 1;
#X floatatom 855 7 5 0 7 0 - - -;
#X msg 856 25 slice \$1;
#X msg 923 -521 key \$1;
#X obj 809 -552 tgl 20 0 empty empty empty 17 7 0 10 -4034 -13381 -1
0 1;
#X msg 809 -530 seq \$1;
#X msg 759 -211 slice \$1;
#X obj 33 -292 mininvl;
#X msg 250 -552 preset bulgar.nvl;
#X obj 997 -297 playlist all 130 250 {Helvetica 12 bold} black darkgrey
white red;
#X msg 1049 -11 preset \$1;
#X msg 1002 -348 location /home/glerm/navalha/presets;
#X symbolatom 995 -40 40 0 0 0 - - -;
#X obj 215 -213 throw~ x1;
#X obj 1003 -367 loadbang;
#X msg 268 -527 preset oboe.nvl;
#X msg 76 -519 pitch \$1;
#X floatatom 65 -544 5 0 0 0 - - -;
#X msg 423 -425 simetria \$1;
#X floatatom 423 -490 5 0 0 0 - - -;
#X msg 722 -272 tempo 120 \$1;
#X msg 798 -415 0.25;
#X msg 797 -396 0.5;
#X msg 797 -376 1;
#X msg 796 -354 2;
#X msg 796 -331 4;
#X floatatom 796 -307 5 0 0 0 - - -;
#X floatatom 758 -236 5 0 0 0 - - -;
#X msg 163 -436 random \$1;
#X msg 199 -546 32;
#X msg 201 -501 16;
#X msg 201 -524 8;
#X msg 1042 -524 normalize;
#X floatatom 32 -345 5 0 0 0 - - -;
#X obj 32 -388 hradio 15 1 0 8 empty empty empty 0 -8 0 10 -262144
-1 -1 0;
#X msg 32 -325 div \$1;
#X obj 32 -366 + 1;
#X msg 544 -441 32;
#X msg 544 -502 16;
#X msg 545 -483 8;
#X msg 544 -462 64;
#X msg 195 -568 64;
#X msg 426 -469 random \$1;
#X msg 985 -393 seek \$1;
#X msg 285 -504 preset tonyriff.nvl;
#X text 41 -144 comment;
#X connect 0 0 1 0;
#X connect 1 0 11 1;
#X connect 2 0 7 0;
#X connect 3 0 11 1;
#X connect 4 0 3 0;
#X connect 5 0 6 0;
#X connect 6 0 11 1;
#X connect 7 0 11 1;
#X connect 8 0 9 0;
#X connect 9 0 11 1;
#X connect 10 0 11 1;
#X connect 11 3 17 0;
#X connect 12 0 11 1;
#X connect 13 1 16 0;
#X connect 13 1 14 0;
#X connect 14 0 11 1;
#X connect 15 0 13 0;
#X connect 18 0 15 0;
#X connect 19 0 11 1;
#X connect 20 0 11 1;
#X connect 21 0 20 0;
#X connect 22 0 11 1;
#X connect 23 0 22 0;
#X connect 23 0 46 0;
#X connect 24 0 11 1;
#X connect 25 0 24 0;
#X connect 26 0 24 0;
#X connect 27 0 24 0;
#X connect 28 0 24 0;
#X connect 29 0 24 0;
#X connect 30 0 24 0;
#X connect 31 0 10 0;
#X connect 32 0 11 1;
#X connect 33 0 32 0;
#X connect 34 0 32 0;
#X connect 35 0 32 0;
#X connect 36 0 11 1;
#X connect 37 0 39 0;
#X connect 38 0 40 0;
#X connect 39 0 11 1;
#X connect 40 0 37 0;
#X connect 41 0 22 0;
#X connect 42 0 22 0;
#X connect 43 0 22 0;
#X connect 44 0 22 0;
#X connect 45 0 32 0;
#X connect 46 0 11 1;
#X connect 47 0 13 0;
#X connect 48 0 11 1;
