#N canvas 0 0 1268 686 10;
#X declare -lib iemmatrix;
#X declare -lib iem_tab;
#X declare -lib iemmatrix;
#X declare -lib iem_tab;
#X floatatom 236 -478 5 1 10 0 - - -;
#X msg 235 -457 pattern \$1;
#X obj 92 -491 tgl 15 0 empty empty empty 17 7 0 10 -262144 -1 -1 0
1;
#X msg 575 -287 vol \$1;
#X obj 578 -307 hsl 30 15 0 1 0 0 empty empty empty -2 -8 0 10 -260097
-257985 -1 0 1;
#X msg 92 -474 key \$1;
#X obj 672 -292 tgl 20 0 empty empty empty 17 7 0 10 -4034 -13381 -1
1 1;
#X msg 672 -270 seq \$1;
#X msg 264 -407 slice \$1;
#X obj 33 -292 mininvl;
#X msg 198 -541 preset bulgar.nvl;
#X msg 201 -521 preset oboe.nvl;
#X msg 34 -519 pitch \$1;
#X floatatom 30 -538 5 0 0 0 - - -;
#X msg 541 -467 simetria \$1;
#X floatatom 541 -532 5 0 0 0 - - -;
#X msg 784 -230 tempo 120 \$1;
#X msg 860 -373 0.25;
#X msg 859 -354 0.5;
#X msg 859 -334 1;
#X msg 858 -312 2;
#X msg 858 -289 4;
#X floatatom 858 -265 5 0 0 0 - - -;
#X floatatom 263 -432 5 0 0 0 - - -;
#X floatatom 32 -345 5 0 0 0 - - -;
#X obj 32 -388 hradio 15 1 0 8 empty empty empty 0 -8 0 10 -262144
-1 -1 0;
#X msg 32 -325 div \$1;
#X obj 32 -366 + 1;
#X msg 627 -474 32;
#X msg 627 -535 16;
#X msg 628 -516 8;
#X msg 627 -495 64;
#X msg 544 -511 random \$1;
#X msg 207 -502 preset tonyriff.nvl;
#N canvas 18 109 696 443 \$0-mastervol 0;
#X obj 258 141 vsl 15 32 0 1 0 0 empty \$0-masterVOLnvl empty 0 -9
0 10 -260097 -1 -1 2088 1;
#X obj 357 215 *~;
#X obj 276 141 vsl 15 32 0 1 0 0 empty \$0-masterVOLnvl empty 0 -9
0 10 -260097 -1 -1 2088 1;
#X obj 380 215 *~;
#X obj 358 262 dac~;
#X obj 105 135 tgl 40 1 empty empty DSP 0 -7 0 10 -99865 -262144 -4160
1 1;
#X obj 205 125 cnv 15 50 50 empty empty master_volume -60 -10 0 15
-86277 -1 0;
#X obj 204 126 knob 50 50 0 1 0 1 \$0-masterVOLnvl naousar empty 0
-8 192 8 -203904 -260097 -1 3300 1;
#X obj 148 150 nbx 3 25 -1e+37 1e+37 0 0 empty \$0-masterVOLnvl empty
0 -8 0 15 -260097 -86277 -1 0.673469 256;
#X msg 105 241 \; pd dsp \$1;
#X obj 111 57 loadbang;
#X msg 113 77 1;
#X obj 317 117 inlet~;
#X obj 459 148 inlet~;
#X connect 0 0 1 1;
#X connect 1 0 4 0;
#X connect 2 0 3 1;
#X connect 3 0 4 1;
#X connect 5 0 9 0;
#X connect 10 0 11 0;
#X connect 11 0 5 0;
#X connect 12 0 1 0;
#X connect 13 0 3 0;
#X coords 0 -1 1 1 200 80 2 100 100;
#X restore 738 13 pd \$0-mastervol;
#X obj 33 48 mininvl;
#X obj 221 94 throw~ slave;
#X obj 799 -11 catch~ slave;
#X obj 33 21 spigot;
#X obj 66 -1 tgl 15 0 empty empty empty 17 7 0 10 -262144 -1 -1 0 1
;
#X text 82 -3 turn on/off slave sync;
#X obj 919 -508 cnv 15 330 220 empty empty empty 20 12 0 14 -159720
-66577 0;
#X obj 986 -551 cnv 15 100 60 empty empty [mininvl] 20 12 0 30 -191407
-66577 0;
#X obj 952 -489 image imgs/NAVA100.gif;
#X text 975 -485 Mini navalha object [mininvl] is a navalha;
#X text 984 -467 "player" with a minimalistic interface;
#X text 984 -449 where you can have much more space to work;
#X text 930 -429 fast and use less computer resources in graphics.
;
#X text 937 -411 It can loads the .nvl files \, sliced and saved in
;
#X text 927 -391 in the [nvl] inteface before or if you don't need
;
#X text 928 -373 to select slices more precisely and you just want
to;
#X text 928 -354 play with simetry of slices with simetria object.
;
#X text 929 -335 It's the more indicated interface to perform and;
#X text 927 -317 connect signals with other patches.;
#X text 296 -435 jump into selected slice;
#X text 268 -482 select pattern saved in a .nvl file;
#X text 787 -211 select tempo and its divisions;
#X text 614 -308 volume;
#X text 530 -555 random trigger with numers os slices you want in a
pattern;
#X text 92 -508 turn keyboard use;
#X text 200 -558 select nvl files and patterns;
#X text 700 -295 start sequencers;
#X text 31 -407 sequencer divisions;
#X text 29 -556 change default pitch;
#X text 1004 -512 MiniNavalha players v.1.1;
#X obj 93 -147 unpack f f f;
#X floatatom 94 -121 5 0 0 0 - - -;
#X floatatom 127 -83 5 0 0 0 - - -;
#X floatatom 162 -44 5 0 0 0 - - -;
#X text 127 -119 actual step of sequencer;
#X text 162 -86 beggining of actual slice;
#X text 198 -43 ending of actual slice;
#X floatatom 393 -91 5 0 0 0 - - -;
#X text 372 -73 actual pitch relative to default;
#X text 371 -59 .wav pitch;
#X text 547 -449 choose the number of slicing simetry;
#X msg 577 -333 normalize 1;
#X msg 491 -374 wav sacrifice.wav;
#X msg 492 -396 wav shadebossa.wav;
#X text 487 -416 you could also just use wavs when using random patterns
;
#X obj 626 -106 spigot~;
#X obj 609 -179 spigot~;
#X obj 644 -212 tgl 15 0 empty empty empty 17 7 0 10 -262144 -1 -1
1 1;
#X floatatom 977 -150 5 0 0 0 - - -;
#X msg 977 -129 0 \$1;
#X obj 1041 -117 random 1000;
#X obj 1051 -85 / 1000;
#X obj 362 -181 % 4;
#X obj 390 -154 == 0;
#X obj 506 -98 sel 1;
#X obj 660 -128 tgl 15 0 empty empty empty 17 7 0 10 -262144 -1 -1
0 1;
#X msg 985 -64 1 \$1;
#X obj 464 -141 != 0;
#X obj 1049 -34 random 1000;
#X obj 1059 -2 / 1000;
#X obj 747 -142 mono-bitcrusher;
#X connect 0 0 1 0;
#X connect 1 0 9 1;
#X connect 2 0 5 0;
#X connect 3 0 9 1;
#X connect 4 0 3 0;
#X connect 5 0 9 1;
#X connect 6 0 7 0;
#X connect 7 0 9 1;
#X connect 8 0 9 1;
#X connect 9 0 38 0;
#X connect 9 1 65 0;
#X connect 9 2 72 0;
#X connect 9 3 80 0;
#X connect 9 3 81 0;
#X connect 9 4 80 0;
#X connect 9 4 81 0;
#X connect 10 0 9 1;
#X connect 11 0 9 1;
#X connect 12 0 9 1;
#X connect 13 0 12 0;
#X connect 14 0 9 1;
#X connect 15 0 14 0;
#X connect 15 0 32 0;
#X connect 16 0 9 1;
#X connect 17 0 16 0;
#X connect 18 0 16 0;
#X connect 19 0 16 0;
#X connect 20 0 16 0;
#X connect 21 0 16 0;
#X connect 22 0 16 0;
#X connect 23 0 8 0;
#X connect 24 0 26 0;
#X connect 25 0 27 0;
#X connect 26 0 9 1;
#X connect 27 0 24 0;
#X connect 28 0 14 0;
#X connect 28 0 15 0;
#X connect 29 0 14 0;
#X connect 29 0 15 0;
#X connect 30 0 14 0;
#X connect 30 0 15 0;
#X connect 31 0 14 0;
#X connect 31 0 15 0;
#X connect 32 0 9 1;
#X connect 33 0 9 1;
#X connect 35 3 36 0;
#X connect 35 4 36 0;
#X connect 37 0 34 0;
#X connect 37 0 34 1;
#X connect 38 0 35 0;
#X connect 39 0 38 1;
#X connect 65 0 66 0;
#X connect 65 0 87 0;
#X connect 65 1 67 0;
#X connect 65 2 68 0;
#X connect 76 0 9 1;
#X connect 77 0 9 1;
#X connect 78 0 9 1;
#X connect 80 0 34 0;
#X connect 80 0 34 1;
#X connect 81 0 95 0;
#X connect 82 0 81 1;
#X connect 83 0 84 0;
#X connect 84 0 95 1;
#X connect 85 0 86 0;
#X connect 86 0 83 0;
#X connect 87 0 88 0;
#X connect 87 0 92 0;
#X connect 88 0 82 0;
#X connect 88 0 89 0;
#X connect 89 0 85 0;
#X connect 89 0 93 0;
#X connect 90 0 80 1;
#X connect 91 0 95 1;
#X connect 92 0 90 0;
#X connect 93 0 94 0;
#X connect 94 0 91 0;
#X connect 95 0 34 0;
#X connect 95 0 34 1;
