#N canvas 0 0 999 641 10;
#X declare -lib iemmatrix;
#X declare -lib iem_tab;
#X declare -lib iemmatrix;
#X declare -lib iem_tab;
#X floatatom 411 192 5 -12 12 0 - - -;
#X msg 395 210 pitch \$1;
#X floatatom 496 -217 5 1 10 0 - - -;
#X msg 495 -196 pattern \$1;
#X floatatom 414 229 5 1 8 0 - - -;
#X msg 392 250 div \$1;
#X obj 386 151 pack f f;
#X msg 380 172 tempo \$1 \$2;
#X floatatom 425 113 5 0 3 0 - - -;
#X floatatom 392 113 5 50 500 0 - - -;
#X obj 401 134 bng 15 250 50 0 empty empty empty 17 7 0 10 -262144
-1 -1;
#X msg 383 85 random \$1;
#X floatatom 387 65 5 0 8 0 - - -;
#X msg 422 65 bang;
#X obj 356 -307 tgl 15 0 empty empty empty 17 7 0 10 -262144 -1 -1
0 1;
#X msg 132 -349 vol \$1;
#X obj 135 -369 hsl 30 15 0 1 0 0 empty empty empty -2 -8 0 10 -260097
-257985 -1 2100 1;
#X floatatom 97 -355 5 0 0 0 - - -;
#X floatatom 208 -356 5 0 7 0 - - -;
#X msg 209 -338 slice \$1;
#X msg 356 -290 key \$1;
#X msg 547 278 mono2x bang;
#X obj 436 -337 tgl 20 0 empty empty empty 17 7 0 10 -4034 -13381 -1
0 1;
#X msg 436 -315 seq \$1;
#X msg 568 -215 slice \$1;
#X obj 313 160 dac~;
#X obj 33 -292 mininvl;
#X msg 298 -372 preset bulgar.nvl;
#X obj 765 -330 playlist all 130 250 {Helvetica 12 bold} black darkgrey
white red;
#X msg 678 -24 preset \$1;
#X msg 819 -380 location /home/glerm/navalha/presets;
#X msg 325 -11 preset shadebossa.nvl;
#X symbolatom 866 -2 40 0 0 0 - - -;
#X obj 227 -214 throw~ x1;
#X obj 293 110 catch~ x1;
#X obj 763 -382 loadbang;
#X msg 326 -350 preset oboe.nvl;
#X msg 60 -318 pitch \$1;
#X floatatom 49 -343 5 0 0 0 - - -;
#X obj 206 155 throw~ x1;
#X msg 197 40 vol \$1;
#X obj 200 20 hsl 30 15 0 1 0 0 empty empty empty -2 -8 0 10 -260097
-257985 -1 1300 1;
#X msg 326 12 preset ritmo.nvl;
#X floatatom 120 17 5 1 10 0 - - -;
#X msg 111 39 pattern \$1;
#X obj 309 44 tgl 15 0 empty empty empty 17 7 0 10 -262144 -1 -1 0
1;
#X msg 309 61 key \$1;
#X msg 451 -364 simetria \$1;
#X floatatom 550 -343 5 0 0 0 - - -;
#X obj 43 77 mininvl;
#X msg 619 -148 tempo 120 \$1;
#X msg 695 -291 0.25;
#X msg 694 -272 0.5;
#X msg 694 -252 1;
#X msg 693 -230 2;
#X msg 693 -207 4;
#X floatatom 693 -183 5 0 0 0 - - -;
#X floatatom 567 -240 5 0 0 0 - - -;
#X msg 310 -129 random \$1;
#X msg 342 -198 32;
#X msg 388 -174 16;
#X msg 375 -193 8;
#X msg 465 -270 normalize;
#X floatatom 168 -83 5 0 0 0 - - -;
#X obj 168 -126 hradio 15 1 0 8 empty empty empty 0 -8 0 10 -262144
-1 -1 0;
#X msg 168 -63 div \$1;
#X obj 168 -104 + 1;
#X msg 589 -376 32;
#X msg 635 -352 16;
#X msg 622 -371 8;
#X msg 561 -382 64;
#X msg 307 -220 64;
#X msg 540 -312 random \$1;
#X msg 475 -71 div \$1;
#X floatatom 482 -99 5 0 0 0 - - -;
#X obj 477 -149 random 8;
#X floatatom 94 -235 5 0 0 0 - - -;
#X obj 85 -149 random 8;
#X obj 96 -174 bng 15 250 50 0 empty empty empty 17 7 0 10 -262144
-1 -1;
#X obj 91 -115 + 1;
#X obj 88 -208 sel 0;
#X msg 676 -328 seek \$1;
#X obj 599 -278 loadbang;
#X connect 0 0 1 0;
#X connect 2 0 3 0;
#X connect 3 0 26 1;
#X connect 4 0 5 0;
#X connect 6 0 7 0;
#X connect 8 0 6 1;
#X connect 8 0 10 0;
#X connect 9 0 6 0;
#X connect 10 0 6 0;
#X connect 12 0 11 0;
#X connect 13 0 12 0;
#X connect 14 0 20 0;
#X connect 15 0 26 1;
#X connect 16 0 15 0;
#X connect 16 0 17 0;
#X connect 18 0 19 0;
#X connect 19 0 26 1;
#X connect 20 0 26 1;
#X connect 22 0 23 0;
#X connect 23 0 26 1;
#X connect 24 0 26 1;
#X connect 26 0 49 0;
#X connect 26 1 76 0;
#X connect 26 3 33 0;
#X connect 26 4 33 0;
#X connect 27 0 26 1;
#X connect 28 1 32 0;
#X connect 28 1 29 0;
#X connect 29 0 26 1;
#X connect 30 0 28 0;
#X connect 31 0 49 1;
#X connect 34 0 25 0;
#X connect 34 0 25 1;
#X connect 35 0 30 0;
#X connect 36 0 26 1;
#X connect 37 0 26 1;
#X connect 38 0 37 0;
#X connect 40 0 49 1;
#X connect 41 0 40 0;
#X connect 42 0 49 1;
#X connect 43 0 44 0;
#X connect 44 0 49 1;
#X connect 45 0 46 0;
#X connect 46 0 49 1;
#X connect 47 0 26 1;
#X connect 47 0 49 1;
#X connect 48 0 47 0;
#X connect 48 0 72 0;
#X connect 49 3 39 0;
#X connect 49 4 39 0;
#X connect 50 0 26 1;
#X connect 51 0 50 0;
#X connect 52 0 50 0;
#X connect 53 0 50 0;
#X connect 54 0 50 0;
#X connect 55 0 50 0;
#X connect 56 0 50 0;
#X connect 57 0 24 0;
#X connect 58 0 26 1;
#X connect 59 0 58 0;
#X connect 60 0 58 0;
#X connect 61 0 58 0;
#X connect 62 0 26 1;
#X connect 63 0 65 0;
#X connect 64 0 66 0;
#X connect 65 0 26 1;
#X connect 66 0 63 0;
#X connect 67 0 47 0;
#X connect 67 0 48 0;
#X connect 68 0 47 0;
#X connect 68 0 48 0;
#X connect 69 0 47 0;
#X connect 69 0 48 0;
#X connect 70 0 47 0;
#X connect 70 0 48 0;
#X connect 71 0 58 0;
#X connect 72 0 26 1;
#X connect 72 0 49 1;
#X connect 73 0 26 1;
#X connect 74 0 73 0;
#X connect 76 0 80 0;
#X connect 77 0 79 0;
#X connect 77 0 81 0;
#X connect 79 0 74 0;
#X connect 80 0 77 0;
#X connect 80 0 78 0;
#X connect 81 0 28 0;
#X connect 82 0 54 0;
