#N canvas 0 0 999 654 24;
#X declare -lib iemmatrix;
#X declare -lib iem_tab;
#X declare -lib iemmatrix;
#X declare -lib iem_tab;
#X obj 150 138 mininvl;
#X obj 315 262 dac~;
#X msg 212 71 simetria \$1;
#X floatatom 345 14 5 0 0 0 - - -;
#X obj 382 -11 bng 15 250 50 0 empty empty empty 17 7 0 10 -262144
-1 -1;
#X msg 391 71 random \$1;
#X msg 601 99 preset akinstyle.nvl;
#X obj 231 337 mininvl;
#N canvas 0 0 450 300 gemwin 0;
#X obj 132 136 gemwin;
#X obj 67 89 outlet;
#X obj 67 10 inlet;
#X msg 67 70 set destroy;
#X msg 132 112 create \, 1;
#X msg 198 112 destroy;
#X msg 156 71 set create;
#X obj 67 41 route create;
#X connect 2 0 7 0;
#X connect 3 0 1 0;
#X connect 4 0 0 0;
#X connect 5 0 0 0;
#X connect 6 0 1 0;
#X connect 7 0 3 0;
#X connect 7 0 4 0;
#X connect 7 1 6 0;
#X connect 7 1 5 0;
#X restore 202 667 pd gemwin;
#X msg 106 454 destroy;
#X text 197 505 Create window:;
#X obj 746 616 cnv 15 100 60 empty empty empty 20 12 0 14 -195568 -66577
0;
#X obj 586 246 gemhead;
#X obj 476 621 pix_texture;
#X obj 691 224 bng 25 250 50 0 empty empty empty 0 -6 0 8 -262144 -1
-1;
#X obj 608 499 unpack 0 0 0;
#X floatatom 626 548 5 0 0 3 length - -;
#X floatatom 729 552 5 0 0 3 width - -;
#X floatatom 819 538 5 0 0 3 height - -;
#X obj 803 484 bng 15 250 50 0 empty empty end_reached 20 7 0 10 -262144
-1 -1;
#X floatatom 747 418 5 0 10000 1 frame# - -;
#X obj 718 253 openpanel;
#X msg 761 310 open \$1;
#X obj 484 690 rectangle 4 3;
#X obj 569 447 pix_film;
#X msg 640 326 auto \$1;
#X obj 640 308 tgl 15 0 empty empty empty 0 -6 0 8 -262144 -1 -1 1
1;
#X msg 755 366 colorspace Grey;
#X obj 415 496 * 93;
#X obj 287 396 unpack f f f;
#X floatatom 397 451 5 0 0 0 - - -;
#X msg 670 157 open movies/kombi.mov;
#X msg 93 47 div \$1;
#X floatatom 96 7 5 0 0 0 - - -;
#X msg 183 -29 4;
#X msg 191 10 8;
#X msg 23 13 2;
#X msg 44 -30 3;
#X msg 460 31 seq \$1;
#X obj 458 -11 tgl 30 0 empty empty empty 17 7 0 10 -4034 -1 -1 0 1
;
#X msg 616 51 slice \$1;
#X floatatom 620 4 5 0 0 0 - - -;
#X connect 0 0 7 0;
#X connect 0 4 1 1;
#X connect 2 0 0 1;
#X connect 2 0 7 1;
#X connect 3 0 2 0;
#X connect 3 0 5 0;
#X connect 4 0 3 0;
#X connect 5 0 0 1;
#X connect 5 0 7 1;
#X connect 6 0 7 1;
#X connect 7 1 29 0;
#X connect 7 3 1 0;
#X connect 8 0 9 0;
#X connect 9 0 8 0;
#X connect 12 0 24 0;
#X connect 13 0 23 0;
#X connect 14 0 21 0;
#X connect 15 0 16 0;
#X connect 15 1 17 0;
#X connect 15 2 18 0;
#X connect 20 0 24 1;
#X connect 21 0 22 0;
#X connect 22 0 24 0;
#X connect 24 0 13 0;
#X connect 24 1 15 0;
#X connect 24 2 19 0;
#X connect 25 0 24 0;
#X connect 26 0 25 0;
#X connect 27 0 24 0;
#X connect 28 0 20 0;
#X connect 29 1 30 0;
#X connect 30 0 28 0;
#X connect 31 0 24 0;
#X connect 32 0 0 1;
#X connect 33 0 32 0;
#X connect 34 0 33 0;
#X connect 35 0 33 0;
#X connect 36 0 33 0;
#X connect 37 0 33 0;
#X connect 38 0 0 1;
#X connect 39 0 38 0;
#X connect 40 0 7 1;
#X connect 41 0 40 0;
