#N canvas 0 25 1255 686 10;
#X declare -lib iemmatrix;
#X declare -lib iem_tab;
#X obj 596 336 s~ n3;
#X obj 779 340 s~ n4;
#X floatatom 411 337 5 0 0 0 - - -;
#X obj 12 52 nvl;
#X obj 2 341 spigot;
#X obj 46 341 tgl 15 1 empty empty empty 17 7 0 10 -262144 -1 -1 0
1;
#X text 245 340 passo do sequenciador;
#X text 632 334 saida esqueda dsp;
#X text 674 345 saida direita dsp;
#X text 60 338 conecta master-slave;
#X text 445 334 nota atual (pitch);
#X obj 914 84 cnv 15 330 500 empty empty empty 20 12 0 14 -262122 -66577
0;
#X text 918 187 que permite que estas fatias sejam recarregadas;
#X text 918 204 na exata posicao que foram salvas - arquivos .nvl.
;
#X text 918 224 Estas fatias podem ser tocadas de maneira nao linear
;
#X text 918 241 modificando os padroes (patterns) do sequenciador;
#X text 918 350 Estes padroes tambem podem ser salvos dentro do;
#X text 918 367 arquivo .nvl criando desta maneira cliches (riffs)
;
#X text 918 382 que podem ser recuperados e repetidos durante a;
#X text 1162 397 performance.;
#X text 918 273 o numero da fatia atual na ordem deste "pattern".;
#N canvas 6 53 1268 686 detalhes-help 0;
#X obj 161 355 cnv 15 300 80 empty empty empty 20 12 0 14 -204767 -66577
0;
#X obj 162 358 bng 50 250 50 0 empty empty -->abrir 50 25 0 30 -164101
-1 -86853;
#N canvas 731 513 367 169 pitchbpmvol-help 0;
#X obj -122 21 cnv 15 360 130 empty empty empty 20 12 0 14 -233017
-66577 0;
#X text -117 42 a) Outlet que mostra a nota (pitch) atual.;
#X text -117 59 b) Semitom relativo ao tom original da musica;
#X text -95 126 ou pelas teclas "zxcvbnm \, .";
#X text -117 96 d) Muda tempo do sequencer em batidas por minuto.;
#X text -117 113 e) Tom predominante atual. Os botoes acima mudam o
semitom \,;
#X text -117 77 c) Volume geral do [nvl] - o pequeno gira stereo juntos.
;
#X restore 343 398 pd pitchbpmvol-help;
#X msg 162 440 \; pd-pitchbpmvol-help vis 1;
#X obj -92 17 cnv 15 100 60 empty empty [nvl] 20 12 0 50 -203904 -66577
0;
#X obj 713 33 cnv 15 300 80 empty empty empty 20 12 0 14 -204767 -66577
0;
#X obj 715 25 bng 50 250 50 0 empty empty -->abrir 50 25 0 30 -164101
-1 -86853;
#N canvas 490 521 383 218 savepreset-help 0;
#X obj -132 5 cnv 15 360 200 empty empty empty 20 12 0 14 -233017 -66577
0;
#X text -128 13 ~) Saidas direita e esquerda.;
#X text -127 49 b) Hack-me: atalho para abrir os codigos.;
#X text -127 67 c) Entrada do nome do arquivo a ser salvo. Escreva
o nome;
#X text -108 81 sem extensao .nvl e aperte enter.;
#X text -127 32 a) Abre um arquivo wav para editar fatias (slices).
;
#X text -108 95 Os patterns e slices salvos no ultimo store (shift+s)
;
#X text -108 109 serao salvos no arquivo.;
#X text -127 127 d) Nome do .nvl atualmente em execucao.;
#X text -127 144 e) Abre um .nvl da pasta.;
#X text -100 181 se for copiar arquivos .nvl e wavs de outros locais.
;
#X text -131 169 *PS: Sempre utilize as pastas "samples" e "presets"
;
#X restore 900 69 pd savepreset-help;
#X msg 715 117 \; pd-savepreset-help vis 1;
#X obj 871 197 image imgs/save_preset.gif;
#X obj -113 85 image NAVA100.gif;
#X obj 274 8 cnv 15 300 80 empty empty empty 20 12 0 14 -204767 -66577
0;
#X obj 274 7 bng 50 250 50 0 empty empty -->abrir 50 25 0 30 -164101
-1 -86853;
#N canvas 558 248 390 491 pattern-help 0;
#X obj -135 9 cnv 15 360 470 empty empty empty 20 12 0 14 -233017 -66577
0;
#X text -132 22 a) Outlet de saida do sincronismo master-slave.;
#X text -113 36 conduz o cursor do sequencer e o bpm atual.;
#X text -132 54 b) Outlet que mostra posicao atual do cursor.;
#X text -132 77 c) Sequencia de slices que sera executada durante;
#X text -113 91 a passagem do cursor master.;
#X text -132 112 d) Zera todo o pattern de slices.;
#X text -115 150 e gera um pattern randomico.;
#X text -132 136 e) Escolhe o numero de slices que vao ser randomizados
;
#X text -133 172 f) Pattern da sequencia comum pra frente e pra tras.
;
#X text -132 193 g) Carrega 10 patterns diferentes que estao salvos
;
#X text -113 207 na matriz buffer da memoria. Estes patterns;
#X text -114 222 sao carregados do arquivo .nvl ou podem ser salvos
;
#X text -113 237 com o procedimento descrito abaixo no item "h".;
#X text -133 257 h) Botao store (ou o atalho shift+s) serve para;
#X text -114 271 atualizar no buffer de memoria ram (nao salva em disco!)
;
#X text -115 286 os atuais presets dos slices e patterns.;
#X text -114 301 Para salvar em disco \, voce precisa dar um nome de
arquivo;
#X text -114 315 na janela save_preset do canto inferior direito.;
#X text -115 349 vai correr. Isto torna possivel fazer sequencia com
;
#X text -114 364 tempos impares ou diferentes de 8 batidas.;
#X text -134 335 i) Number box que define o numero de celulas que o
cursor;
#X text -133 384 j) Liga/Desliga os atalhos e controles de teclado.
;
#X text -114 420 de um master \, mas obviamente nao estarao sincronizados.
;
#X text -132 405 k) Liga/Desliga sequencer master. E possivel tocar
mais;
#X text -132 439 j) Cursor do sequenciador - dispara slice atual.;
#X restore 480 51 pd pattern-help;
#X msg 274 127 \; pd-pattern-help vis 1;
#X obj 279 202 image imgs/pattern_sequencer.gif;
#X obj 691 339 cnv 15 300 80 empty empty empty 20 12 0 14 -204767 -66577
0;
#X obj 691 339 bng 50 250 50 0 empty empty -->abrir 50 25 0 30 -164101
-1 -86853;
#N canvas 120 533 411 206 slices-help 0;
#X obj -111 7 cnv 15 400 180 empty empty empty 20 12 0 14 -233017 -66577
0;
#X text -106 21 a) Slider para edicao dos trechos (final);
#X text -87 34 o de cima seleciona inicios.;
#X text -107 77 b) Esta tabela carrega o wav a ser executado.;
#X text -86 91 Utilize barra de espaco para tocar o trecho todo.;
#X text -106 108 c) Fatia (slice) da selecao carregada do .nvl ou editada.
;
#X text -90 121 quando modificar um slice utilize shift+s para guardar
;
#X text -89 134 em buffer e a entrada "save preset" para salvar arquivo.
;
#X text -87 48 Utilizar os atalhos "qwertyuiop" para selecionar de
0 a 7;
#X text -86 63 Utilizar os atalhos "asdfghjkl" para selecionar de 8
a 15;
#X restore 889 394 pd slices-help;
#X msg 691 435 \; pd-slices-help vis 1;
#X obj 830 512 image imgs/slices.gif;
#X obj -154 282 cnv 15 200 100 empty empty empty 20 12 0 14 -233017
-66577 0;
#X text -147 291 clique nos bangs;
#X text -146 306 para entender os detalhes;
#X obj -47 292 bng 15 250 50 0 \$0-atalhos empty empty 50 25 0 30 -164101
-1 -86853;
#X obj 192 503 image imgs/bpm_pitch_vol.gif;
#X text -145 332 IMPORTANTE:;
#X obj -140 348 bng 15 250 50 0 \$0-atalhos empty empty 50 25 0 30
-164101 -1 -86853;
#X text -123 348 <-- aprenda os atalhos de;
#X text -84 360 teclado!;
#N canvas 72 361 422 219 atalhos-help 0;
#X obj -108 14 cnv 15 400 180 empty empty empty 20 12 0 14 -233017
-66577 0;
#X text -86 42 Utilizar os atalhos "qwertyuiop" para slices de 0 a
7;
#X text -85 57 Utilizar os atalhos "asdfghjkl" para slices de 8 a 15
;
#X text -86 29 Utilizar os atalhos "1234567890" para slices de 1 a
10;
#X text -84 72 Utilizar os atalhos "zxcvbnm \, ." para mudar o pitch
;
#X text -85 86 Utilizar barra de espaco para tocar o sample todo;
#X text -87 108 Sempre usar shift+s para atualizar modificacoes nos
presets.;
#X text -86 126 Salvar escrevendo um novo nome no "save preset";
#X text -85 138 e depois enter.;
#X text -83 160 Os atalhos sao ligados e desligados com o toggle "key".
;
#X restore -156 641 pd atalhos-help;
#X msg -155 609 \; pd-atalhos-help vis 1;
#X obj -153 590 r \$0-atalhos;
#X msg 953 640 \; pd-detalhes-help vis 1;
#X obj 953 620 r \$0-detalhes;
#X obj -110 98 image imgs/NAVA100.gif;
#X connect 1 0 3 0;
#X connect 6 0 8 0;
#X connect 12 0 14 0;
#X connect 17 0 19 0;
#X connect 32 0 31 0;
#X connect 34 0 33 0;
#X restore 1136 651 pd detalhes-help;
#X text 918 257 que toca numa velocidade determinada em batidas/minuto
;
#X text 918 419 Os controles de edicao e perfomance ja estao todos
;
#X text 918 311 primeiros inlets outlets - determinando um master;
#X text 918 294 Os objetos podem ser conectados em cascata pelos;
#X text 918 326 sequencer para performances controlando "slaves" nvl.
;
#X text 918 436 mapeados para controle via teclado do seu computador.
;
#X text 918 451 Se voce necessita desligar essa funcao use o botao
;
#X text 1027 89 O objeto [nvl] cria instancias;
#X text 1034 104 de um sequenciador de fatias;
#X text 1022 120 (slices) de .wav que podem;
#X text 1106 152 grafica deste objeto.;
#X text 975 137 ser editadas e salvas na propria interface;
#X obj 914 495 cnv 15 330 20 empty empty empty 20 12 0 14 -257025 -66577
0;
#X obj 921 494 bng 20 250 50 0 \$0-detalhes empty empty 17 7 0 10 -86853
-257985 -1;
#X obj 914 515 cnv 15 330 40 empty empty empty 20 12 0 14 -232915 -66577
0;
#X text 917 529 e objetos relacionados em http://navalha.devolts.org
;
#X text 916 518 e acompanhe novos tutoriais \, pacotes de arquivos
.nvl;
#X text 947 496 --> Clique aqui para mais detalhes sobre o uso.;
#X obj 914 556 cnv 15 330 30 empty empty empty 20 12 0 14 -128992 -66577
0;
#X text 917 569 thanks to all PD developers that made it possible.
;
#X text 915 555 GNU/GPL Glerm Soares 2009 http://glerm.devolts.org
;
#X floatatom 858 265 5 -12 12 0 - - -;
#X msg 784 479 pitch \$1;
#X floatatom 842 90 5 1 10 0 - - -;
#X msg 833 112 pattern \$1;
#X floatatom 861 302 5 1 8 0 - - -;
#X msg 839 323 div \$1;
#X obj 833 224 pack f f;
#X msg 827 245 tempo \$1 \$2;
#X floatatom 872 186 5 0 3 0 - - -;
#X floatatom 839 186 5 50 500 0 - - -;
#X obj 848 207 bng 15 250 50 0 empty empty empty 17 7 0 10 -262144
-1 -1;
#X msg 830 158 random \$1;
#X floatatom 834 138 5 0 8 0 - - -;
#X msg 869 138 bang;
#N canvas 18 109 696 443 \$0-mastervol 0;
#X obj 258 141 vsl 15 32 0 1 0 0 empty \$0-masterVOLnvl empty 0 -9
0 10 -260097 -1 -1 2088 1;
#X obj 357 215 *~;
#X obj 276 141 vsl 15 32 0 1 0 0 empty \$0-masterVOLnvl empty 0 -9
0 10 -260097 -1 -1 2088 1;
#X obj 380 215 *~;
#X obj 358 262 dac~;
#X obj 105 135 tgl 40 1 empty empty DSP 0 -7 0 10 -99865 -262144 -4160
1 1;
#X obj 205 125 cnv 15 50 50 empty empty master_volume -60 -10 0 15
-86277 -1 0;
#X obj 204 126 knob 50 50 0 1 0 1 \$0-masterVOLnvl naousar empty 0
-8 192 8 -203904 -260097 -1 3300 1;
#X obj 148 150 nbx 3 25 -1e+37 1e+37 0 0 empty \$0-masterVOLnvl empty
0 -8 0 15 -260097 -86277 -1 0.673469 256;
#X msg 105 241 \; pd dsp \$1;
#X obj 111 57 loadbang;
#X msg 113 77 1;
#X obj 317 117 inlet~;
#X obj 459 148 inlet~;
#X connect 0 0 1 1;
#X connect 1 0 4 0;
#X connect 2 0 3 1;
#X connect 3 0 4 1;
#X connect 5 0 9 0;
#X connect 10 0 11 0;
#X connect 11 0 5 0;
#X connect 12 0 1 0;
#X connect 13 0 3 0;
#X coords 0 -1 1 1 200 80 2 100 100;
#X restore 932 590 pd \$0-mastervol;
#X obj 874 575 r~ n3;
#X obj 1160 627 r~ n4;
#X obj 442 26 cnv 15 550 25 empty empty <--- 380 20 0 14 -232576 -45076
0;
#X obj 916 123 tgl 20 0 empty empty empty 17 7 0 10 -262144 -13381
-1 0 1;
#X obj 910 85 tgl 15 0 empty empty empty 17 7 0 10 -262144 -1 -1 0
1;
#X msg 861 368 vol \$1;
#X obj 864 348 hsl 30 15 0 1 0 0 empty empty empty -2 -8 0 10 -260097
-257985 -1 0 1;
#X floatatom 826 362 5 0 0 0 - - -;
#X obj 1019 23 cnv 15 100 60 empty empty [nvl] 20 12 0 50 -203904 -66577
0;
#X text 1051 63 Navalha abstraction v.1.0;
#X text 449 23 Este inlet facilita a entrada de modificadores dos controles
;
#X text 481 34 permitindo facil conexao com outros patches e hardware.
;
#X obj 12 24 cnv 15 100 25 empty empty empty 380 20 0 14 -232576 -45076
0;
#X text 9 33 *Este inlet usa-se apenas quando slave \, para sync.;
#X msg 823 62 preset sacrifice.nvl;
#X floatatom 904 17 5 0 7 0 - - -;
#X msg 905 35 slice \$1;
#X msg 910 102 key \$1;
#X msg 916 145 seq \$1;
#X text 918 171 Estabelece tambem um arquivo padrao de metadados;
#X text 1195 466 "key".;
#X obj 1000 70 image imgs/NAVA100.gif;
#X obj 127 393 unpack f f f;
#X floatatom 123 415 5 0 0 0 - - -;
#X floatatom 165 417 5 0 0 0 - - -;
#X floatatom 203 420 5 0 0 0 - - -;
#X obj 376 364 cnv 15 250 350 empty empty empty 20 12 0 14 -228992
-66577 0;
#X obj 521 647 cnv 15 100 60 empty empty empty 20 12 0 14 -195568 -66577
0;
#N canvas 0 0 450 300 gemwin 0;
#X obj 132 136 gemwin;
#X obj 67 89 outlet;
#X obj 67 10 inlet;
#X msg 67 70 set destroy;
#X msg 132 112 create \, 1;
#X msg 198 112 destroy;
#X msg 156 71 set create;
#X obj 67 41 route create;
#X connect 2 0 7 0;
#X connect 3 0 1 0;
#X connect 4 0 0 0;
#X connect 5 0 0 0;
#X connect 6 0 1 0;
#X connect 7 0 3 0;
#X connect 7 0 4 0;
#X connect 7 1 6 0;
#X connect 7 1 5 0;
#X restore 526 686 pd gemwin;
#X msg 526 667 destroy;
#X text 522 646 Create window:;
#X obj 378 395 cnv 15 155 250 empty empty empty 20 12 0 14 -24198 -66577
0;
#X obj 378 370 gemhead;
#X obj 378 667 pix_texture;
#X obj 390 400 bng 25 250 50 0 empty empty empty 0 -6 0 8 -262144 -1
-1;
#X text 432 364 open a supported;
#X text 433 375 movie-clip;
#X obj 403 594 unpack 0 0 0;
#X floatatom 393 617 5 0 0 3 length - -;
#X floatatom 442 617 5 0 0 3 width - -;
#X floatatom 492 617 5 0 0 3 height - -;
#X obj 447 575 bng 15 250 50 0 empty empty end_reached 20 7 0 10 -262144
-1 -1;
#X floatatom 429 540 5 0 10000 1 frame# - -;
#X obj 390 429 openpanel;
#X msg 390 449 open \$1;
#X obj 378 689 rectangle 4 3;
#X obj 378 558 pix_film;
#X msg 396 492 auto \$1;
#X obj 645 407 tgl 15 0 empty empty empty 0 -6 0 8 -262144 -1 -1 0
1;
#X msg 407 516 colorspace Grey;
#X msg 227 492 open movies/sync00.mov;
#X floatatom 235 620 5 0 0 0 - - -;
#X obj 233 593 *;
#X floatatom 261 593 5 0 0 0 - - -;
#X msg 633 428 open movies/stallman.mov;
#X msg 672 406 preset stallman.nvl;
#X floatatom 786 514 5 0 0 0 - - -;
#X obj 700 585 list-dripslow;
#X obj 662 515 t b;
#X obj 667 543 spigot;
#X obj 705 517 tgl 15 0 empty empty empty 17 7 0 10 -262144 -1 -1 0
1;
#X msg 768 560 0 -12 -7 -3;
#X obj 614 369 loadbang;
#X obj 612 385 t b b b;
#X connect 3 0 4 0;
#X connect 3 1 80 0;
#X connect 3 1 116 0;
#X connect 3 2 2 0;
#X connect 3 3 0 0;
#X connect 3 4 1 0;
#X connect 5 0 4 1;
#X connect 43 0 44 0;
#X connect 44 0 3 1;
#X connect 45 0 46 0;
#X connect 46 0 3 1;
#X connect 47 0 48 0;
#X connect 48 0 3 1;
#X connect 49 0 50 0;
#X connect 50 0 3 1;
#X connect 51 0 49 1;
#X connect 51 0 53 0;
#X connect 52 0 49 0;
#X connect 53 0 49 0;
#X connect 54 0 3 1;
#X connect 55 0 54 0;
#X connect 56 0 55 0;
#X connect 58 0 57 0;
#X connect 59 0 57 1;
#X connect 61 0 76 0;
#X connect 62 0 75 0;
#X connect 63 0 3 1;
#X connect 64 0 63 0;
#X connect 64 0 65 0;
#X connect 72 0 3 1;
#X connect 73 0 74 0;
#X connect 74 0 3 1;
#X connect 75 0 3 1;
#X connect 76 0 3 1;
#X connect 80 0 81 0;
#X connect 80 1 82 0;
#X connect 80 2 83 0;
#X connect 82 0 110 0;
#X connect 86 0 87 0;
#X connect 87 0 86 0;
#X connect 90 0 104 0;
#X connect 91 0 103 0;
#X connect 92 0 101 0;
#X connect 95 0 96 0;
#X connect 95 0 111 0;
#X connect 95 1 97 0;
#X connect 95 2 98 0;
#X connect 100 0 104 1;
#X connect 101 0 102 0;
#X connect 102 0 104 0;
#X connect 104 0 91 0;
#X connect 104 1 95 0;
#X connect 104 2 99 0;
#X connect 105 0 104 0;
#X connect 106 0 105 0;
#X connect 107 0 104 0;
#X connect 108 0 104 0;
#X connect 110 0 109 0;
#X connect 110 0 100 0;
#X connect 111 0 110 1;
#X connect 112 0 104 0;
#X connect 113 0 3 1;
#X connect 114 0 44 0;
#X connect 115 0 114 0;
#X connect 115 1 119 0;
#X connect 116 0 117 0;
#X connect 117 0 115 0;
#X connect 118 0 117 1;
#X connect 119 0 115 1;
#X connect 120 0 121 0;
#X connect 121 0 112 0;
#X connect 121 1 106 0;
#X connect 121 2 113 0;
