#N canvas 514 53 740 623 10;
#X declare -lib iemmatrix;
#X declare -lib iem_tab;
#X obj 59 391 pdp_qt;
#X floatatom 77 429 5 0 0 0 - - -;
#X floatatom 127 430 5 0 0 0 - - -;
#X obj 56 41 metro 40;
#X msg 56 13 bang;
#X msg 97 13 stop;
#X msg 15 13 bang;
#X obj 140 41 openpanel;
#X msg 140 66 open \$1;
#X msg 140 13 bang;
#X msg 140 92 close;
#X floatatom 140 120 5 0 0 0 - - -;
#X floatatom 140 146 5 0 0 0 - - -;
#X msg 140 197 loop \$1;
#X obj 203 182 tgl 15 0 empty empty empty 0 -6 0 8 -262144 -1 -1 0
1;
#X msg 142 341 dump array 0;
#X msg 142 291 stop;
#X msg 142 267 play;
#X msg 142 315 cont;
#X obj 335 535 table array;
#X obj 448 535 tabplay~ array;
#X obj 448 576 dac~;
#X obj 448 506 bng 15 250 50 0 empty empty empty 0 -6 0 8 -262144 -1
-1;
#X obj 282 90 mininvl;
#X msg 518 60 preset stallman.nvl;
#X obj 429 143 ezdac~;
#X obj 411 6 tgl 15 0 empty empty empty 17 7 0 10 -262144 -1 -1 0 1
;
#X msg 411 29 seq \$1;
#X msg 479 37 pattern \$1;
#X floatatom 480 11 5 0 0 0 - - -;
#X obj 312 158 unpack f f f;
#X floatatom 302 186 5 0 0 0 - - -;
#X floatatom 340 190 5 0 0 0 - - -;
#X floatatom 379 190 5 0 0 0 - - -;
#X obj 337 233 * 346;
#X floatatom 96 87 5 0 0 0 - - -;
#X msg 141 223 autoplay 0;
#X obj 342 310 tgl 15 0 empty empty empty 0 -6 0 8 -262144 -1 -1 1
1;
#X obj 342 362 pdp_control;
#X msg 342 335 thread \$1;
#X floatatom 342 423 5 0 0 0 - - -;
#X obj 342 394 route pdp_drop;
#X obj 59 462 pdp_xv;
#X msg 14 -11 open /home/glerm/navalha/movies/stallman.mov;
#X msg 352 50 slice \$1;
#X floatatom 360 25 5 0 0 0 - - -;
#X obj 331 -16 key;
#X obj 306 22 % 8;
#X connect 0 0 42 0;
#X connect 0 1 1 0;
#X connect 0 2 2 0;
#X connect 3 0 0 0;
#X connect 4 0 3 0;
#X connect 5 0 3 0;
#X connect 6 0 0 0;
#X connect 7 0 8 0;
#X connect 8 0 0 0;
#X connect 9 0 7 0;
#X connect 10 0 0 0;
#X connect 11 0 0 0;
#X connect 12 0 0 1;
#X connect 13 0 0 0;
#X connect 14 0 13 0;
#X connect 15 0 0 0;
#X connect 16 0 0 0;
#X connect 17 0 0 0;
#X connect 18 0 0 0;
#X connect 20 0 21 0;
#X connect 20 0 21 1;
#X connect 22 0 20 0;
#X connect 23 1 30 0;
#X connect 23 3 25 0;
#X connect 23 4 25 1;
#X connect 24 0 23 1;
#X connect 26 0 27 0;
#X connect 27 0 23 1;
#X connect 28 0 23 1;
#X connect 29 0 28 0;
#X connect 30 0 31 0;
#X connect 30 1 32 0;
#X connect 30 2 33 0;
#X connect 32 0 34 0;
#X connect 34 0 12 0;
#X connect 35 0 3 1;
#X connect 36 0 0 0;
#X connect 37 0 39 0;
#X connect 38 0 41 0;
#X connect 39 0 38 0;
#X connect 41 0 40 0;
#X connect 43 0 0 0;
#X connect 44 0 23 1;
#X connect 45 0 44 0;
#X connect 46 0 47 0;
#X connect 47 0 45 0;
