#N canvas 300 227 962 448 10;
#X declare -lib iemmatrix;
#X declare -lib iem_tab;
#X obj 117 34 nvlvideo;
#X obj 45 -45 mininvl;
#N canvas 18 109 696 443 \$0-mastervol 0;
#X obj 258 141 vsl 15 32 0 1 0 0 empty \$0-masterVOLnvl empty 0 -9
0 10 -260097 -1 -1 2784 1;
#X obj 357 215 *~;
#X obj 276 141 vsl 15 32 0 1 0 0 empty \$0-masterVOLnvl empty 0 -9
0 10 -260097 -1 -1 2784 1;
#X obj 380 215 *~;
#X obj 358 262 dac~;
#X obj 105 135 tgl 40 1 empty empty DSP 0 -7 0 10 -99865 -262144 -4160
1 1;
#X obj 205 125 cnv 15 50 50 empty empty master_volume -60 -10 0 15
-86277 -1 0;
#X obj 204 126 knob 50 50 0 1 0 1 \$0-masterVOLnvl naousar empty 0
-8 192 8 -203904 -260097 -1 4400 1;
#X obj 148 150 nbx 3 25 -1e+37 1e+37 0 0 empty \$0-masterVOLnvl empty
0 -8 0 15 -260097 -86277 -1 0.897959 256;
#X msg 105 241 \; pd dsp \$1;
#X obj 111 57 loadbang;
#X msg 113 77 1;
#X obj 317 117 inlet~;
#X obj 459 148 inlet~;
#X connect 0 0 1 1;
#X connect 1 0 4 0;
#X connect 2 0 3 1;
#X connect 3 0 4 1;
#X connect 5 0 9 0;
#X connect 10 0 11 0;
#X connect 11 0 5 0;
#X connect 12 0 1 0;
#X connect 13 0 3 0;
#X coords 0 -1 1 1 200 80 2 100 100;
#X restore 339 58 pd \$0-mastervol;
#X msg 498 -140 preset stallman.nvl;
#X msg 168 -160 tempo 120 1;
#X msg 335 -205 random \$1;
#X msg 396 -205 simetria \$1;
#X obj 377 -235 t f f;
#X floatatom 376 -255 5 0 0 0 - - -;
#X msg 147 -138 tempo 120 2;
#X msg 117 -116 tempo 120 4;
#X obj -168 -260 cnv 15 100 60 empty empty [nvlvideo] 20 12 0 30 -233017
-66577 0;
#X obj -227 -212 cnv 15 330 100 empty empty empty 20 12 0 14 -203904
-66577 0;
#X obj -194 -193 image imgs/NAVA100.gif;
#X text -146 -217 Navalha video sync v.1.1;
#X text 26 48 create/destroy;
#X text 33 63 video window;
#X text 187 61 autoplay;
#X text 514 -110 separeted from audio.;
#X text 514 -96 Put the video track at;
#X text -175 -191 Video sync object [nvlvideo] is a navalha;
#X text -166 -172 "videoplayer" with a minimalistic interface;
#X text 514 -124 You must have the video;
#X text 512 -84 movies folder with the;
#X text 514 -69 same name of .nvl preset;
#X text 517 -40 but with the .mov extension.;
#X text 533 -25 They must have the same;
#X text 593 -10 time duration.;
#X text -166 -154 where you can synchronize sound slices;
#X text -212 -138 with video frames of the video source of that sound.
;
#X text 541 19 as an extract from video.);
#X msg 498 -162 preset kombi.nvl;
#X obj 198 -257 loadbang;
#X msg 252 -257 32;
#X text 47 -1 frame sync;
#X obj 483 -245 + 1;
#X obj 461 -266 hradio 20 1 0 8 empty empty randomize 0 -8 0 10 -262144
-1 -1 3;
#X obj 461 -245 * 4;
#X msg 523 -208 wav tonyriff.wav;
#X msg 439 -27 pattern \$1;
#X floatatom 448 -53 5 0 7 0 - - -;
#X text 517 -55 or the equivalent .wav file;
#X text 456 -231 you can also use .wav with random patterns;
#X text 505 6 (the related .wav is considered;
#X obj 644 -179 loadbang;
#X connect 1 1 0 0;
#X connect 1 3 2 0;
#X connect 1 4 2 1;
#X connect 3 0 1 1;
#X connect 3 0 0 1;
#X connect 4 0 1 1;
#X connect 5 0 1 1;
#X connect 6 0 1 1;
#X connect 7 0 5 0;
#X connect 7 1 6 0;
#X connect 8 0 7 0;
#X connect 9 0 1 1;
#X connect 10 0 1 1;
#X connect 31 0 1 1;
#X connect 31 0 0 1;
#X connect 32 0 33 0;
#X connect 32 0 10 0;
#X connect 33 0 8 0;
#X connect 35 0 37 0;
#X connect 36 0 35 0;
#X connect 37 0 8 0;
#X connect 38 0 1 1;
#X connect 38 0 0 1;
#X connect 39 0 1 1;
#X connect 40 0 39 0;
#X connect 44 0 31 0;
