#N canvas 0 25 1268 686 10;
#X obj 65 285 unpack f f f;
#X floatatom 99 311 5 0 0 0 - - -;
#N canvas 0 0 450 300 gemwin 0;
#X obj 132 136 gemwin;
#X obj 67 89 outlet;
#X obj 67 10 inlet;
#X msg 67 70 set destroy;
#X msg 132 112 create \, 1;
#X msg 198 112 destroy;
#X msg 156 71 set create;
#X obj 67 41 route create;
#X connect 2 0 7 0;
#X connect 3 0 1 0;
#X connect 4 0 0 0;
#X connect 5 0 0 0;
#X connect 6 0 1 0;
#X connect 7 0 3 0;
#X connect 7 0 4 0;
#X connect 7 1 6 0;
#X connect 7 1 5 0;
#X restore 102 198 pd gemwin;
#X msg 102 179 create;
#X obj 199 246 gemhead;
#X obj 199 543 pix_texture;
#X obj 221 470 unpack 0 0 0;
#X floatatom 120 385 5 0 10000 1 frame# - -;
#X obj 199 565 rectangle 4 3;
#X obj 199 434 pix_film;
#X msg 176 191 auto \$1;
#X floatatom 143 318 5 0 0 0 - - -;
#X obj 128 345 *;
#X obj 65 52 inlet;
#X obj 351 283 makefilename movies/%s.mov;
#X msg 351 311 open \$1;
#X obj 285 48 inlet;
#X obj 375 196 unpack s s;
#X obj 429 217 splitfilename .;
#X msg 528 274 label \$1;
#X obj 555 298 s \$0-videoname;
#X obj 103 105 cnv 15 95 15 empty \$0-videoname tonyriff 2 5 1 12 -262144
-1 0;
#X obj 189 120 tgl 10 0 empty empty empty 17 7 0 10 -66577 -262144
-1 1 1;
#X obj 254 151 loadbang;
#X obj 102 119 bng 10 250 50 0 empty empty video 11 7 0 7 -232576 -1
-1;
#X msg 260 195 label nvlvideo;
#X connect 0 1 1 0;
#X connect 1 0 12 0;
#X connect 2 0 3 0;
#X connect 3 0 2 0;
#X connect 4 0 9 0;
#X connect 5 0 8 0;
#X connect 6 0 11 0;
#X connect 7 0 9 1;
#X connect 9 0 5 0;
#X connect 9 1 6 0;
#X connect 10 0 9 0;
#X connect 11 0 12 1;
#X connect 12 0 7 0;
#X connect 13 0 0 0;
#X connect 14 0 15 0;
#X connect 15 0 9 0;
#X connect 16 0 17 0;
#X connect 17 1 18 0;
#X connect 18 0 14 0;
#X connect 18 0 19 0;
#X connect 19 0 20 0;
#X connect 22 0 10 0;
#X connect 23 0 22 0;
#X connect 23 0 25 0;
#X connect 24 0 3 0;
#X connect 25 0 20 0;
#X coords 0 -1 1 1 100 30 2 100 100;
