#N canvas 451 250 654 394 10;
#X declare -lib iemmatrix;
#X declare -lib iem_tab;
#X floatatom 505 -38 5 1 10 0 - - -;
#X msg 496 -16 pattern \$1;
#X obj 357 -127 tgl 15 0 empty empty empty 17 7 0 10 -262144 -1 -1
0 1;
#X msg 133 -169 vol \$1;
#X obj 136 -189 hsl 30 15 0 1 0 0 empty empty empty -2 -8 0 10 -260097
-257985 -1 1500 1;
#X floatatom 98 -175 5 0 0 0 - - -;
#X floatatom 209 -176 5 0 7 0 - - -;
#X msg 210 -158 slice \$1;
#X msg 357 -110 key \$1;
#X obj 483 -147 tgl 20 0 empty empty empty 17 7 0 10 -262144 -13381
-1 0 1;
#X msg 483 -125 seq \$1;
#X floatatom 440 -94 5 0 7 0 - - -;
#X msg 438 -70 slice \$1;
#X msg 299 -192 preset bulgar.nvl;
#X msg 327 -170 preset oboe.nvl;
#X msg 61 -138 pitch \$1;
#X floatatom 50 -163 5 0 0 0 - - -;
#X msg 452 -184 simetria \$1;
#X floatatom 551 -169 5 0 0 0 - - -;
#X floatatom 56 -17 5 0 0 0 - - -;
#X obj 46 103 line;
#X floatatom 48 128 5 0 0 0 - - -;
#X floatatom 47 -73 5 0 0 0 - - -;
#X msg 49 78 \$1 100;
#X obj 157 21 line;
#X floatatom 159 46 5 0 0 0 - - -;
#X msg 160 -4 \$1 100;
#X obj 164 -32 * 5;
#X floatatom 98 -70 5 0 0 0 - - -;
#X obj 157 -53 == 4;
#X floatatom 241 46 5 0 0 0 - - -;
#X obj 304 -36 dac~;
#X obj 34 -112 mininvl;
#X obj 50 35 * -7;
#X obj 34 -52 == 2;
#X obj 220 -48 sel 5;
#X obj 234 -8 random 48;
#X obj 241 19 - 48;
#X obj 103 53 sel 0;
#X obj 102 4 count 32;
#X obj 102 85 random 10;
#X msg 354 41 tempo 120 \$1;
#X floatatom 380 13 5 0 0 0 - - -;
#X obj 513 -87 key;
#X obj 509 -68 % 32;
#X connect 0 0 1 0;
#X connect 1 0 32 1;
#X connect 2 0 8 0;
#X connect 3 0 32 1;
#X connect 4 0 3 0;
#X connect 4 0 5 0;
#X connect 6 0 7 0;
#X connect 7 0 32 1;
#X connect 8 0 32 1;
#X connect 9 0 10 0;
#X connect 10 0 32 1;
#X connect 11 0 12 0;
#X connect 12 0 32 1;
#X connect 13 0 32 1;
#X connect 14 0 32 1;
#X connect 15 0 32 1;
#X connect 16 0 15 0;
#X connect 17 0 32 1;
#X connect 18 0 17 0;
#X connect 19 0 33 0;
#X connect 20 0 21 0;
#X connect 21 0 16 0;
#X connect 22 0 34 0;
#X connect 22 0 39 0;
#X connect 23 0 20 0;
#X connect 24 0 25 0;
#X connect 25 0 16 0;
#X connect 26 0 24 0;
#X connect 27 0 26 0;
#X connect 28 0 29 0;
#X connect 28 0 35 0;
#X connect 29 0 27 0;
#X connect 30 0 27 1;
#X connect 32 1 22 0;
#X connect 32 1 28 0;
#X connect 32 3 31 0;
#X connect 32 4 31 0;
#X connect 33 0 23 0;
#X connect 34 0 19 0;
#X connect 35 0 36 0;
#X connect 36 0 37 0;
#X connect 37 0 30 0;
#X connect 38 0 40 0;
#X connect 39 0 38 0;
#X connect 40 0 0 0;
#X connect 41 0 32 1;
#X connect 42 0 41 0;
#X connect 43 0 44 0;
#X connect 44 0 11 0;
