#N canvas 6 53 1268 686 10;
#X declare -lib bsaylor;
#X declare -lib iem_tab;
#X obj 106 266 hsl 795 12 0 1 0 0 \$0-end \$0-end-r empty -2 -8 0 10
-182874 -1 -1 9900 1;
#X obj 103 116 cnv 15 800 148 empty \$0-cnvtable empty 20 12 0 14 -224813
-1 0;
#X obj 104 116 cnv 15 99 148 empty \$0-selectarea 0 0 80 0 141 -195986
-247041 0;
#N canvas 0 22 450 300 (subpatch) 0;
#X array \$0-L 146056 float 2;
#X coords 0 1 146056 -1 800 75 1;
#X restore 103 115 graph;
#N canvas 0 22 450 300 (subpatch) 0;
#X array \$0-R 146056 float 2;
#X coords 0 1 146056 -1 800 75 1;
#X restore 103 190 graph;
#X obj 106 103 hsl 795 12 0 1 0 0 \$0-start \$0-start-r empty -2 -8
0 10 -182874 -1 -1 0 1;
#X text 431 464 engine segmentos;
#X obj 104 280 cnv 15 797 97 empty \$0-playercnv empty 20 12 0 14 -160781
-1 0;
#X obj 405 347 cnv 15 300 30 empty \$0-defaultpitchlabel Do-5 0 15
1 24 -66057 -262144 0;
#X obj 689 306 cnv 15 200 70 empty empty empty 0 7 1 12 -33289 -203904
0;
#X obj 107 289 cnv 15 500 30 empty empty empty 0 15 1 24 -123792 -262144
0;
#X obj 219 326 nbx 2 15 -1e+37 1e+37 0 0 \$0-seqC3-S \$0-seqC3-R empty
0 -8 0 15 -33289 -203904 -1 0 256;
#X obj 145 325 nbx 2 15 -1e+37 1e+37 0 0 \$0-seqC1-S \$0-seqC1-R empty
0 -8 0 15 -33289 -203904 -1 0 256;
#X obj 182 326 nbx 2 15 -1e+37 1e+37 0 0 \$0-seqC2-S \$0-seqC2-R empty
0 -8 0 15 -33289 -203904 -1 0 256;
#X obj 107 325 nbx 2 15 -1e+37 1e+37 0 0 \$0-seqC0-S \$0-seqC0-R empty
0 -8 0 15 -16662 -203904 -1 0 256;
#X obj 367 326 nbx 2 15 -1e+37 1e+37 0 0 \$0-seqC7-S \$0-seqC7-R empty
0 -8 0 15 -33289 -203904 -1 0 256;
#X obj 293 326 nbx 2 15 -1e+37 1e+37 0 0 \$0-seqC5-S \$0-seqC5-R empty
0 -8 0 15 -33289 -203904 -1 0 256;
#X obj 330 326 nbx 2 15 -1e+37 1e+37 0 0 \$0-seqC6-S \$0-seqC6-R empty
0 -8 0 15 -33289 -203904 -1 0 256;
#X obj 256 326 nbx 2 15 -1e+37 1e+37 0 0 \$0-seqC4-S \$0-seqC4-R empty
0 -8 0 15 -16662 -203904 -1 0 256;
#X obj 107 341 hradio 37 1 0 8 \$0-seqcursor-S \$0-seqcursor-R empty
0 -8 0 10 -228856 -58253 -1 1;
#X obj 111 289 tgl 30 0 \$0-seqtoggle-S \$0-seqtoggle-R empty 17 7
0 10 -86277 -232576 -1 1 1;
#X obj 819 365 cnv 12 80 12 empty empty configure: 0 5 1 10 -33289
-262144 0;
#X obj 887 362 bng 15 250 50 0 \$0-configure empty empty 17 7 0 10
-99865 -203904 -1;
#X obj 213 284 cnv 15 50 30 empty empty pattern 0 5 1 10 -164752 -262144
0;
#X obj 220 300 nbx 3 15 -1e+37 1e+37 0 0 \$0-pattern empty empty 0
-8 0 15 -4160 -203904 -1 0 256;
#X obj 787 431 r \$0-configure;
#X obj 155 284 cnv 15 50 30 empty empty div 0 5 1 10 -164752 -262144
0;
#X obj 158 300 nbx 3 15 -1e+37 1e+37 0 0 \$0-div empty empty 0 -8 0
15 -4160 -203904 -1 8 256;
#X obj 384 286 cnv 15 30 20 empty \$0-tmodecnv-R bpm 10 10 1 15 -164741
-262144 0;
#X obj 272 282 nbx 4 30 -1e+37 1e+37 0 0 \$0-ntempo-S \$0-ntempo-R
empty 0 -8 0 25 -86277 -260097 -1 0 256;
#X obj 645 338 cnv 15 50 15 empty empty tuned 5 7 1 12 -86027 -232576
0;
#X obj 633 356 nbx 3 20 -1e+37 1e+37 0 0 \$0-slicepitch-S \$0-slicepitch-R
empty 0 -8 0 18 -139909 -261234 -1 0 256;
#X obj 701 280 cnv 15 200 15 empty \$0-presetcanvas breakcore.nvl 0
7 1 12 -58569 -262130 0;
#X obj 357 308 hradio 13 1 0 4 \$0-tmode-S \$0-tmode-R /8 10 -8 0 10
-86277 -260097 -262144 0;
#X obj 799 362 bng 15 250 50 0 \$0-open empty empty 17 7 0 10 -99865
-203904 -1;
#X obj 712 363 cnv 12 80 12 empty empty edit_wav-file: 0 7 1 11 -33289
-262144 0;
#X obj 94 475 cnv 15 120 50 empty empty empty 0 7 1 12 -33289 -203904
0;
#X obj 112 483 cnv 15 100 20 empty \$0-tstretchcnv SampleScratch 0
5 1 13 -86277 -262144 0;
#X obj 182 501 cnv 15 30 20 empty \$0-tstretchunit ms 10 10 1 15 -86277
-262144 0;
#X obj 112 501 nbx 4 20 -1e+37 1e+37 0 0 \$0-tstrech-S \$0-tstrech-R
empty 0 -8 0 18 -231946 -262144 -1 0 256;
#X obj 98 482 vradio 13 1 0 3 \$0-syncscale-S \$0-syncscale-R empty
0 -8 0 10 -86277 -260097 -1 0;
#X obj 582 283 cnv 15 50 50 empty \$0-volcnv_L 0.42871 0 42 0 8 -140044
-232576 0;
#X obj 594 287 cnv 15 30 30 empty empty empty 0 7 1 12 -86277 -203904
0;
#X obj 591 286 knob 32 32 0 1 0 0 \$0-vol_L-S \$0-vol_L-R empty 0 -8
192 8 -114693 -172745 -1 1329 1;
#X obj 636 283 cnv 15 50 50 empty \$0-volcnv_R 0.42871 0 42 0 8 -140044
-203904 0;
#X obj 648 287 cnv 15 30 30 empty empty empty 0 7 1 12 -86277 -203904
0;
#X obj 645 286 knob 32 32 0 1 0 0 \$0-vol_R-S \$0-vol_R-R empty 0 -8
192 8 -114693 -172745 -1 1329 1;
#X obj 405 337 hradio 10 1 0 24 \$0-rpitch-S \$0-rpitch-L empty 0 -8
0 8 -262144 -1 -1 0;
#X obj 701 298 cnv 15 200 60 empty \$0-presetcnv empty 20 12 0 14 -173779
-1 0;
#X symbolatom 703 314 30 0 0 0 - #0-presetname_save-R #0-presetname_save-S
;
#X obj 703 298 cnv 15 100 15 empty empty save_preset: 0 7 1 12 -33289
-203904 0;
#X obj 804 339 bng 15 250 50 0 \$0-preset_btn empty empty 17 7 0 10
-99865 -203904 -1;
#X obj 702 339 cnv 15 100 15 empty empty open_preset: 0 7 1 12 -33289
-203904 0;
#X obj 836 346 bng 10 250 50 0 \$0-normalize empty normalize 11 5 0
8 -262144 -1 -1;
#X obj 854 334 bng 10 250 50 0 \$0-mono2stereo empty mono2x 11 5 0
8 -262144 -1 -1;
#X obj 627 283 knob 15 15 0 1 0 0 \$0-vol-S \$0-vol-R empty 0 -8 192
8 -86853 -86277 -1 600 1;
#X obj 788 477 s pd-\$0-configure_guts;
#N canvas 328 439 450 300 \$0-configure_guts 0;
#X obj 6 210 image NAVA100.gif;
#X obj 11 18 tgl 40 1 \$0-ligasom aaaaaaaaaa DSP 0 -7 0 10 -99865 -262144
-4160 1 1;
#X obj 88 66 bng 15 250 50 0 \$0-save \$0-enterR slice_update -85 20
0 9 -159808 -4160 -16662;
#X text 31 64 (shift+u);
#X obj 67 161 bng 15 250 50 0 \$0-normalize empty normalize 17 7 0
10 -262144 -1 -1;
#X obj 68 181 bng 15 250 50 0 \$0-mono2stereo empty mono2stereo 17
7 0 10 -262144 -1 -1;
#X obj 168 25 bng 15 250 50 0 \$0-timestretch_btn empty timestretch
17 7 0 10 -262144 -1 -1;
#X obj 168 42 bng 15 250 50 0 \$0-sequencer_btn empty sequencer 17
7 0 10 -262144 -1 -1;
#X restore 857 383 pd \$0-configure_guts;
#X msg 788 454 vis 1;
#N canvas 90 439 696 300 \$0-timestretch_guts 0;
#X obj 68 17 r \$0-syncscale-S;
#X obj 42 149 s \$0-tstretchcnv;
#X obj 147 149 s \$0-tstretchunit;
#X msg 214 99 label %;
#X msg 193 123 label bpm;
#X msg 133 96 label ms;
#X msg 17 97 label TimeStretch;
#X msg 20 121 label SampleScratch;
#X obj 71 38 sel 0 1 2;
#X obj 385 113 import bsaylor;
#X text 362 69 usar:;
#X obj 354 90 pvoc~ \$0-sss 2048 4;
#X connect 0 0 8 0;
#X connect 3 0 2 0;
#X connect 4 0 2 0;
#X connect 5 0 2 0;
#X connect 6 0 1 0;
#X connect 7 0 1 0;
#X connect 8 0 7 0;
#X connect 8 0 5 0;
#X connect 8 1 6 0;
#X connect 8 1 4 0;
#X connect 8 2 6 0;
#X connect 8 2 3 0;
#X restore 90 529 pd \$0-timestretch_guts;
#N canvas 18 109 450 300 \$0-pitch_guts 0;
#X symbolatom 26 29 10 0 0 0 - #0-defaultpitch -;
#X obj 27 69 s \$0-defaultpitchlabel;
#X msg 28 49 label \$1;
#X msg 95 46 label_font 1 \$1;
#X floatatom 127 19 5 0 0 0 - - -;
#X connect 0 0 2 0;
#X connect 2 0 1 0;
#X connect 3 0 1 0;
#X connect 4 0 3 0;
#X restore 409 384 pd \$0-pitch_guts;
#N canvas 470 127 804 612 \$0-sequencer_guts 0;
#X obj 120 410 int;
#X obj 156 410 int;
#X obj 192 410 int;
#X obj 226 410 int;
#X obj 261 410 int;
#X obj 297 410 int;
#X obj 333 410 int;
#X obj 367 410 int;
#X obj 114 323 sel 0 1 2 3 4 5 6 7;
#X obj 308 475 prepend set;
#X obj 280 452 pack f f f f f f f f;
#X obj 287 502 list;
#X obj 382 381 r \$0-seqC7-S;
#X obj 382 357 r \$0-seqC6-S;
#X obj 382 337 r \$0-seqC5-S;
#X obj 381 229 r \$0-seqC0-S;
#X obj 382 250 r \$0-seqC1-S;
#X obj 382 270 r \$0-seqC2-S;
#X obj 382 294 r \$0-seqC3-S;
#X obj 382 316 r \$0-seqC4-S;
#X obj 114 303 r \$0-seqcursor-S;
#X obj 362 -18 bng 15 250 50 0 empty \$0-random random -20 -5 0 10
-262144 -1 -1;
#X obj 405 -14 bng 15 250 50 0 empty \$0-> > 0 -5 0 15 -262144 -1 -1
;
#X obj 480 -15 bng 15 250 50 0 empty \$0-< < 0 -5 0 15 -262144 -1 -1
;
#X obj 566 -13 bng 12 250 50 0 empty \$0-seqzero zero -15 -5 0 10 -262144
-1 -1;
#X obj 51 143 metro 145;
#N canvas 180 302 826 437 auto 0;
#X obj 40 388 outlet;
#X obj 41 175 random 8;
#X obj 94 388 outlet;
#X obj 95 175 random 8;
#X obj 149 388 outlet;
#X obj 150 175 random 8;
#X obj 203 388 outlet;
#X obj 204 175 random 8;
#X obj 258 388 outlet;
#X obj 259 175 random 8;
#X obj 312 388 outlet;
#X obj 313 175 random 8;
#X obj 367 388 outlet;
#X obj 368 175 random 8;
#X obj 421 388 outlet;
#X obj 422 175 random 8;
#X obj 215 45 t b b b b b b b b;
#X obj 215 23 inlet;
#X obj 379 21 inlet;
#X msg 384 49 0 1 2 3 4 5 6 7;
#X obj 373 78 unpack f f f f f f f f;
#X obj 489 18 inlet;
#X obj 602 19 inlet;
#X msg 627 76 0 0 0 0 0 0 0 0;
#X msg 494 46 7 6 5 4 3 2 1 0;
#X obj 688 26 inlet;
#X obj 41 60 r \$0-rdn;
#X connect 1 0 0 0;
#X connect 3 0 2 0;
#X connect 5 0 4 0;
#X connect 7 0 6 0;
#X connect 9 0 8 0;
#X connect 11 0 10 0;
#X connect 13 0 12 0;
#X connect 15 0 14 0;
#X connect 16 0 1 0;
#X connect 16 1 3 0;
#X connect 16 2 5 0;
#X connect 16 3 7 0;
#X connect 16 4 9 0;
#X connect 16 5 11 0;
#X connect 16 6 13 0;
#X connect 16 7 15 0;
#X connect 17 0 16 0;
#X connect 18 0 19 0;
#X connect 19 0 20 0;
#X connect 20 0 0 0;
#X connect 20 1 2 0;
#X connect 20 2 4 0;
#X connect 20 3 6 0;
#X connect 20 4 8 0;
#X connect 20 5 10 0;
#X connect 20 6 12 0;
#X connect 20 7 14 0;
#X connect 21 0 24 0;
#X connect 22 0 23 0;
#X connect 23 0 20 0;
#X connect 24 0 20 0;
#X connect 25 0 20 0;
#X connect 26 0 15 1;
#X connect 26 0 13 1;
#X connect 26 0 11 1;
#X connect 26 0 7 1;
#X connect 26 0 5 1;
#X connect 26 0 3 1;
#X connect 26 0 1 1;
#X connect 26 0 9 1;
#X restore 331 5 pd auto --------------------------------------------
;
#X floatatom 108 176 5 1 16 2 div #0-div -;
#X floatatom 638 -43 5 0 16 2 pattern #0-pattern -;
#N canvas 0 0 450 300 counter 0;
#X obj 61 34 inlet;
#X obj 73 154 f 0;
#X obj 74 190 + 1;
#X msg 85 118 0;
#X obj 51 256 outlet;
#X obj 54 76 route reset;
#X msg 23 119 bang;
#X obj 171 30 inlet;
#X obj 108 154 mod;
#X connect 0 0 5 0;
#X connect 1 0 2 0;
#X connect 1 0 4 0;
#X connect 2 0 8 0;
#X connect 3 0 1 1;
#X connect 5 0 3 0;
#X connect 5 1 6 0;
#X connect 6 0 1 0;
#X connect 7 0 8 1;
#X connect 8 0 1 1;
#X restore 51 196 pd counter;
#X obj 245 1 s \$0-rdn;
#X text 242 -16 fator random;
#X floatatom 245 -31 5 0 0 0 - #0-randomfactor -;
#N canvas 12 81 450 300 paterns 0;
#X msg 106 59 6 3 0 7 6 6 2 0;
#X msg 115 84 0 7 6 0 3 5 0 3;
#X msg 129 107 4 0 4 4 1 1 1 4;
#X msg 165 164 1 4 0 6 4 2 4 0;
#X msg 153 135 7 0 7 7 1 6 1 6;
#X msg 173 197 0 1 2 3 4 5 6 7;
#X obj 80 232 outlet;
#X obj 127 3 inlet;
#X obj 128 26 sel 0 1 2 3 4 5 6 7;
#X msg 302 246 0 1 4 3 5 3 7 7;
#X msg 177 219 8 9 10 11 12 13 14 15;
#X connect 0 0 6 0;
#X connect 1 0 6 0;
#X connect 2 0 6 0;
#X connect 3 0 6 0;
#X connect 4 0 6 0;
#X connect 5 0 6 0;
#X connect 7 0 8 0;
#X connect 8 0 0 0;
#X connect 8 1 1 0;
#X connect 8 2 2 0;
#X connect 8 3 4 0;
#X connect 8 4 3 0;
#X connect 8 5 5 0;
#X connect 8 6 10 0;
#X connect 8 7 9 0;
#X connect 9 0 6 0;
#X connect 10 0 6 0;
#X restore 639 -26 pd paterns;
#X obj 640 28 s \$0-seqC7-R;
#X obj 14 219 s \$0-seqcursor-R;
#X obj 50 123 tgl 15 0 empty \$0-seqtoggle-S empty 17 7 0 10 -262144
-1 -1 1 1;
#X obj 595 49 s \$0-seqC6-R;
#X obj 551 70 s \$0-seqC5-R;
#X obj 507 91 s \$0-seqC4-R;
#X obj 463 31 s \$0-seqC3-R;
#X obj 419 52 s \$0-seqC2-R;
#X obj 375 72 s \$0-seqC1-R;
#X obj 331 94 s \$0-seqC0-R;
#X obj 69 -33 r \$0-tmode-S;
#X obj 49 78 convert.bpm2ms;
#X floatatom 115 116 5 0 0 0 - - -;
#X obj 139 -8 sel 0 1 2 3;
#X obj 181 127 s \$0-tmode-R;
#X msg 180 25 label /2;
#X floatatom 32 -27 5 0 0 2 ntempo #0-ntempo-S -;
#X obj 74 -7 + 1;
#X msg 184 47 label /4;
#X obj 47 24 *;
#X msg 202 66 label /8;
#X msg 206 88 label /16;
#X obj 49 55 f;
#X obj 111 23 t b;
#X obj 209 492 s \$0-seq;
#X connect 0 0 10 0;
#X connect 0 0 58 0;
#X connect 1 0 10 1;
#X connect 1 0 58 0;
#X connect 2 0 10 2;
#X connect 2 0 58 0;
#X connect 3 0 10 3;
#X connect 3 0 58 0;
#X connect 4 0 10 4;
#X connect 4 0 58 0;
#X connect 5 0 10 5;
#X connect 5 0 58 0;
#X connect 6 0 10 6;
#X connect 6 0 58 0;
#X connect 7 0 10 7;
#X connect 7 0 58 0;
#X connect 8 0 0 0;
#X connect 8 1 1 0;
#X connect 8 2 2 0;
#X connect 8 3 3 0;
#X connect 8 4 4 0;
#X connect 8 5 5 0;
#X connect 8 6 6 0;
#X connect 8 7 7 0;
#X connect 9 0 11 1;
#X connect 10 0 9 0;
#X connect 12 0 7 1;
#X connect 13 0 6 1;
#X connect 14 0 5 1;
#X connect 15 0 0 1;
#X connect 16 0 1 1;
#X connect 17 0 2 1;
#X connect 18 0 3 1;
#X connect 19 0 4 1;
#X connect 20 0 8 0;
#X connect 21 0 26 0;
#X connect 22 0 26 1;
#X connect 23 0 26 2;
#X connect 24 0 26 3;
#X connect 25 0 29 0;
#X connect 26 0 43 0;
#X connect 26 1 42 0;
#X connect 26 2 41 0;
#X connect 26 3 40 0;
#X connect 26 4 39 0;
#X connect 26 5 38 0;
#X connect 26 6 37 0;
#X connect 26 7 34 0;
#X connect 27 0 29 1;
#X connect 28 0 33 0;
#X connect 29 0 35 0;
#X connect 32 0 30 0;
#X connect 33 0 26 4;
#X connect 36 0 25 0;
#X connect 44 0 47 0;
#X connect 44 0 51 0;
#X connect 44 0 57 0;
#X connect 45 0 46 0;
#X connect 46 0 25 1;
#X connect 47 0 49 0;
#X connect 47 1 52 0;
#X connect 47 2 54 0;
#X connect 47 3 55 0;
#X connect 49 0 48 0;
#X connect 50 0 53 1;
#X connect 51 0 53 0;
#X connect 52 0 48 0;
#X connect 53 0 56 1;
#X connect 54 0 48 0;
#X connect 55 0 48 0;
#X connect 56 0 45 0;
#X connect 57 0 56 0;
#X restore 104 384 pd \$0-sequencer_guts;
#N canvas 66 333 243 340 \$0-interface 0;
#X msg 12 19 color -1.03061e+07 -1 -1;
#X obj 23 43 s \$0-playercnv;
#N canvas 6 53 558 488 tuning 0;
#X obj 38 122 sel 122 120 99 118 98 110 109 44 46 29;
#X msg 132 156 0;
#X msg 158 152 1;
#X msg 187 153 2;
#X msg 215 154 3;
#X msg 100 155 -1;
#X msg 72 154 -2;
#X msg 43 153 -3;
#X msg 16 152 -4;
#X msg 244 155 4;
#X obj 38 10 key;
#X obj 114 206 s \$0-pshift;
#X obj 38 75 spigot;
#X obj 83 33 inlet;
#X text 120 101 zxcvb;
#X connect 0 0 8 0;
#X connect 0 2 7 0;
#X connect 0 3 6 0;
#X connect 0 4 5 0;
#X connect 0 5 1 0;
#X connect 0 6 2 0;
#X connect 0 7 3 0;
#X connect 0 8 4 0;
#X connect 0 9 9 0;
#X connect 1 0 11 0;
#X connect 2 0 11 0;
#X connect 3 0 11 0;
#X connect 4 0 11 0;
#X connect 5 0 11 0;
#X connect 6 0 11 0;
#X connect 7 0 11 0;
#X connect 8 0 11 0;
#X connect 9 0 11 0;
#X connect 10 0 12 0;
#X connect 12 0 0 0;
#X connect 13 0 12 1;
#X restore 44 158 pd tuning;
#X obj 44 141 tgl 15 0 empty empty empty 17 7 0 10 -262144 -1 -1 0
1;
#N canvas 24 137 450 300 controls 0;
#N canvas 118 215 682 385 ascii 0;
#X obj 75 62 key;
#X msg 40 133 0;
#X msg 69 133 1;
#X obj 158 303 outlet;
#X msg 97 135 2;
#X msg 158 135 4;
#X msg 190 134 5;
#X msg 222 136 6;
#X msg 253 137 7;
#X msg 125 134 3;
#X obj 77 102 sel 113 119 101 114 116 121 117 105 111 112;
#X obj 343 76 key;
#X obj 347 102 sel 97 115 100 102 103 104 106 107 108;
#X text 506 83 asdfg;
#X text 287 85 qwerty;
#X msg 306 147 8;
#X msg 335 147 9;
#X msg 363 149 10;
#X msg 391 148 11;
#X msg 423 149 12;
#X msg 456 148 13;
#X msg 488 150 14;
#X msg 518 152 15;
#X obj 210 39 s \$0-enterR;
#X obj 28 260 sel 32;
#X obj 210 20 sel 85;
#X text 251 20 shift+U;
#X text 21 282 barra;
#X connect 0 0 10 0;
#X connect 0 0 24 0;
#X connect 0 0 25 0;
#X connect 1 0 3 0;
#X connect 2 0 3 0;
#X connect 4 0 3 0;
#X connect 5 0 3 0;
#X connect 6 0 3 0;
#X connect 7 0 3 0;
#X connect 8 0 3 0;
#X connect 9 0 3 0;
#X connect 10 0 1 0;
#X connect 10 1 2 0;
#X connect 10 2 4 0;
#X connect 10 3 9 0;
#X connect 10 4 5 0;
#X connect 10 5 6 0;
#X connect 10 6 7 0;
#X connect 10 7 8 0;
#X connect 11 0 12 0;
#X connect 12 0 15 0;
#X connect 12 1 16 0;
#X connect 12 2 17 0;
#X connect 12 3 18 0;
#X connect 12 4 19 0;
#X connect 12 5 20 0;
#X connect 12 6 21 0;
#X connect 12 7 22 0;
#X connect 15 0 3 0;
#X connect 16 0 3 0;
#X connect 17 0 3 0;
#X connect 18 0 3 0;
#X connect 19 0 3 0;
#X connect 20 0 3 0;
#X connect 21 0 3 0;
#X connect 22 0 3 0;
#X connect 24 0 3 0;
#X connect 25 0 23 0;
#X restore 111 29 pd ascii;
#X obj 18 142 s \$0-slicerpanel;
#X obj 156 168 s \$0-play;
#X obj 156 142 t b;
#N canvas 105 468 854 116 mouseslices 0;
#X obj -779 27 hradio 50 1 0 16 \$0-slice \$0-slicerpanel empty 0 -8
0 10 -54277 -83269 -1 0;
#X obj -715 1 cnv 15 30 20 empty empty 1 0 10 1 30 -204786 -13330 0
;
#X obj -667 0 cnv 15 30 20 empty empty 2 0 12 1 30 -204786 -13330 0
;
#X obj -615 0 cnv 15 30 20 empty empty 3 0 12 1 30 -204786 -13330 0
;
#X obj -569 0 cnv 15 30 20 empty empty 4 0 12 1 30 -204786 -13330 0
;
#X obj -518 0 cnv 15 30 20 empty empty 5 0 12 1 30 -204786 -13330 0
;
#X obj -469 0 cnv 15 30 20 empty empty 6 0 12 1 30 -204786 -13330 0
;
#X obj -418 0 cnv 15 30 20 empty empty 7 0 12 1 30 -204786 -13330 0
;
#X obj -370 0 cnv 15 30 20 empty empty 8 0 12 1 30 -204786 -13330 0
;
#X obj -766 0 cnv 15 30 20 empty empty 0 0 11 1 30 -204786 -13330 0
;
#X obj -317 0 cnv 15 30 20 empty empty 9 0 12 1 30 -204786 -13330 0
;
#X obj -270 0 cnv 15 30 20 empty empty 10 0 12 1 30 -204786 -13330
0;
#X obj -219 0 cnv 15 30 20 empty empty 11 0 12 1 30 -204786 -13330
0;
#X obj -171 0 cnv 15 30 20 empty empty 12 0 12 1 30 -204786 -13330
0;
#X obj -120 0 cnv 15 30 20 empty empty 13 0 12 1 30 -204786 -13330
0;
#X obj -71 0 cnv 15 30 20 empty empty 14 0 12 1 30 -204786 -13330 0
;
#X obj -22 0 cnv 15 30 20 empty empty 15 0 12 1 30 -204786 -13330 0
;
#X restore 29 257 pd mouseslices;
#X obj 124 125 spigot 1;
#X obj 240 77 inlet;
#X obj 23 60 r \$0-seq;
#X connect 0 0 5 0;
#X connect 3 0 2 0;
#X connect 5 0 1 0;
#X connect 5 0 3 0;
#X connect 6 0 5 1;
#X connect 7 0 5 0;
#X restore 105 158 pd controls;
#X obj 105 138 tgl 15 1 empty empty empty 17 7 0 10 -262144 -1 -1 1
1;
#X text 35 174 contoles de entrada humana;
#X obj 105 92 key;
#X obj 105 113 sel 67;
#X text 106 73 shift+C;
#X connect 0 0 1 0;
#X connect 3 0 2 0;
#X connect 5 0 4 0;
#X connect 7 0 8 0;
#X connect 8 0 5 0;
#X restore 3 279 pd \$0-interface;
#N canvas 6 53 1268 686 \$0-play_segments 0;
#X obj 627 391 soundfiler;
#X obj 136 48 openpanel;
#X obj 627 344 pack s \$0;
#X obj 789 247 s \$0-selectarea;
#X msg 627 369 read -resize \$1 \$2-L \$2-R;
#X obj 5 123 * 800;
#X obj 765 185 loadbang;
#X obj 3 186 s \$0-selectarea;
#X obj 112 295 s \$0-selectarea;
#X msg 110 272 label \$1;
#X obj 111 251 makefilename %d;
#X obj 4 103 r \$0-start;
#X obj 374 177 tabplay~ \$0-L;
#X obj 419 108 r \$0-len;
#X obj 374 156 pack 0 0;
#X obj 362 66 f;
#X obj 377 41 r \$0-start;
#X obj 362 89 *;
#X obj 390 65 r \$0-samples;
#X obj 420 133 *;
#X obj 446 132 t b f;
#X obj 362 18 r \$0-play;
#X obj 626 412 s \$0-samples;
#X obj 112 229 r \$0-slice;
#X obj 407 196 tabplay~ \$0-R;
#X obj 137 70 s \$0-filename;
#X obj 627 298 r \$0-filename;
#X obj 151 -132 r \$0-open;
#X obj 313 -163 loadbang;
#X obj 727 424 s \$0-slices-start;
#X obj 835 423 s \$0-slices-end;
#X msg 726 401 const 0;
#X obj 682 466 s \$0-slice-1s-r;
#X msg 684 444 0;
#X obj 782 466 s \$0-slice-10s-r;
#X obj 627 319 t a b b;
#X obj 380 286 *~;
#X obj 408 287 *~;
#X obj 418 231 vline~;
#X msg 500 168 0 5 \, 1 5 5;
#X obj 360 109 t f b;
#X obj 361 133 pipe 5;
#N canvas 12 81 800 493 rack_de_efeitos 0;
#X obj 86 29 inlet~;
#X obj 152 31 inlet~;
#X obj 87 263 outlet~;
#X obj 138 263 outlet~;
#X text 364 42 usar fx.vocoder~ fica massa;
#X obj 151 163 fx.pitch.shift~;
#X obj 53 133 fx.pitch.shift~;
#X obj 240 57 r \$0-pshift;
#X obj 287 313 fiddle~;
#N canvas 0 0 664 495 nomesnotas 0;
#X obj 80 47 inlet;
#X obj 79 436 outlet;
#X obj 58 182 % 12;
#X obj 136 202 sel 0 1 2 3 4 5 6 7 8 9 10 11;
#X obj 59 303 t a;
#X msg 58 260 Do;
#X msg 89 260 Do_sustenido;
#X msg 174 262 Re;
#X msg 207 262 Re_sustenido;
#X msg 292 263 Mi;
#X msg 321 264 Fa;
#X msg 349 264 Fa_sustenido;
#X msg 441 263 Sol;
#X msg 473 265 Sol_sustenido;
#X msg 565 268 La;
#X msg 600 271 Si_bemol;
#X msg 666 269 Si;
#X obj 233 129 / 12;
#X obj 226 153 int;
#X obj 187 410 - 1;
#X obj 190 436 outlet;
#X connect 0 0 2 0;
#X connect 0 0 17 0;
#X connect 2 0 3 0;
#X connect 3 0 5 0;
#X connect 3 1 6 0;
#X connect 3 2 7 0;
#X connect 3 3 8 0;
#X connect 3 4 9 0;
#X connect 3 5 10 0;
#X connect 3 6 11 0;
#X connect 3 7 12 0;
#X connect 3 8 13 0;
#X connect 3 9 14 0;
#X connect 3 10 15 0;
#X connect 3 11 16 0;
#X connect 4 0 1 0;
#X connect 5 0 4 0;
#X connect 6 0 4 0;
#X connect 7 0 4 0;
#X connect 8 0 4 0;
#X connect 9 0 4 0;
#X connect 10 0 4 0;
#X connect 11 0 4 0;
#X connect 12 0 4 0;
#X connect 13 0 4 0;
#X connect 14 0 4 0;
#X connect 15 0 4 0;
#X connect 16 0 4 0;
#X connect 17 0 18 0;
#X connect 18 0 19 0;
#X connect 19 0 20 0;
#X restore 287 337 pd nomesnotas;
#X obj 233 433 s \$0-defaultpitchlabel;
#X msg 233 408 label \$1;
#X obj 296 391 tosymbol;
#X obj 287 359 sprintf %s-%d;
#X connect 0 0 6 0;
#X connect 1 0 5 0;
#X connect 5 0 3 0;
#X connect 5 0 8 0;
#X connect 6 0 2 0;
#X connect 6 0 8 0;
#X connect 7 0 5 1;
#X connect 7 0 6 1;
#X connect 8 0 9 0;
#X connect 9 0 13 0;
#X connect 9 1 13 1;
#X connect 11 0 10 0;
#X connect 12 0 11 0;
#X connect 13 0 12 0;
#X restore 362 316 pd rack_de_efeitos;
#X text 153 -150 abre wav;
#X text 609 269 recebe caminho arq. wav;
#X msg 50 56 \; pd dsp \$1;
#X obj 50 29 r \$0-ligasom;
#X text 58 11 dsp;
#X text 112 211 display numero do trecho;
#X text 611 282 valido para 1 uso do arq.;
#X obj 519 -105 -;
#X obj 517 51 s \$0-selectarea;
#X msg 519 -35 vis_size \$1 148;
#X obj 572 -150 r \$0-start;
#X obj 518 -130 r \$0-end;
#X obj 572 -130 t b f;
#X obj 519 -57 max 1;
#X obj 520 -79 * 800;
#X obj 561 -79 s \$0-len;
#X obj 650 77 s \$0-cnvtable;
#X text 655 57 fundo_da_tabela;
#X obj 654 -16 loadbang;
#X msg 592 23 color -1.2573e+07 -1 -1.59465e+07;
#X msg 651 5 color -1.42133e+07 -1 -1;
#X text 616 -79 tamanho do segmento;
#X obj 10 362 tab_copy \$0-L \$0-R;
#X obj 10 342 r \$0-mono2stereo;
#X obj 6 460 import iem_tab;
#X text 353 0 toca segmentos;
#X text 18 442 tab_copy depende iem_tab;
#X text 880 -159 a Matt Davey's patch;
#X text 884 -144 (thanks for sharing);
#X text 862 -173 segment player based in;
#X floatatom 74 106 5 0 0 0 - - -;
#X msg 103 165 label \$1;
#X symbolatom 190 157 10 0 0 0 - - -;
#X msg 73 126 label_font 0 \$1;
#X obj 855 -34 s \$0-L;
#X msg 857 -57 normalize 1;
#X obj 897 -35 s \$0-R;
#X obj 858 -79 r \$0-normalize;
#X floatatom 661 183 5 0 0 0 - - -;
#X obj 5 145 + 104;
#X msg 3 164 pos \$1 116;
#X msg 704 219 pos 104 116 \, vis_size 15 148 \, label navalha;
#N canvas 0 312 738 482 \$0-volume 0;
#X obj 345 108 tosymbol;
#X obj 348 157 s \$0-volcnv_L;
#X msg 346 132 label \$1;
#X obj 332 56 r \$0-vol_L-S;
#X obj 318 87 t f f;
#X obj 275 117 sel 0;
#X msg 245 142 label volume-L;
#X obj 158 114 tosymbol;
#X msg 159 138 label \$1;
#X obj 131 93 t f f;
#X obj 88 123 sel 0;
#X obj 157 71 r \$0-vol_R-S;
#X obj 161 162 s \$0-volcnv_R;
#X msg 58 148 label volume-R;
#X obj 201 224 r \$0-vol-S;
#X obj 212 269 s \$0-vol_L-R;
#X obj 133 268 s \$0-vol_R-R;
#X obj 189 93 outlet;
#X obj 365 79 outlet;
#X connect 0 0 2 0;
#X connect 2 0 1 0;
#X connect 3 0 4 0;
#X connect 3 0 18 0;
#X connect 4 0 5 0;
#X connect 4 1 0 0;
#X connect 5 0 6 0;
#X connect 6 0 1 0;
#X connect 7 0 8 0;
#X connect 8 0 12 0;
#X connect 9 0 10 0;
#X connect 9 1 7 0;
#X connect 10 0 13 0;
#X connect 11 0 9 0;
#X connect 11 0 17 0;
#X connect 13 0 12 0;
#X connect 14 0 15 0;
#X connect 14 0 16 0;
#X restore 462 354 pd \$0-volume;
#X floatatom 474 417 5 0 0 0 - - -;
#X floatatom 512 419 5 0 0 0 - - -;
#X obj 387 388 *~;
#X obj 415 389 *~;
#X obj 352 423 outlet~;
#X obj 406 426 outlet~;
#X obj 199 -84 path;
#X obj 199 -37 mergefilename /;
#X obj 139 3 symbol;
#X msg 199 -60 \$1 samples;
#X connect 0 0 22 0;
#X connect 1 0 25 0;
#X connect 2 0 4 0;
#X connect 4 0 0 0;
#X connect 5 0 82 0;
#X connect 6 0 84 0;
#X connect 9 0 8 0;
#X connect 10 0 9 0;
#X connect 11 0 5 0;
#X connect 12 0 36 0;
#X connect 13 0 19 0;
#X connect 14 0 12 0;
#X connect 14 0 24 0;
#X connect 15 0 17 0;
#X connect 16 0 15 1;
#X connect 17 0 40 0;
#X connect 18 0 17 1;
#X connect 18 0 20 0;
#X connect 19 0 14 1;
#X connect 20 0 19 0;
#X connect 20 1 19 1;
#X connect 21 0 15 0;
#X connect 23 0 10 0;
#X connect 24 0 37 0;
#X connect 26 0 35 0;
#X connect 27 0 94 0;
#X connect 28 0 92 0;
#X connect 31 0 29 0;
#X connect 31 0 30 0;
#X connect 33 0 32 0;
#X connect 33 0 34 0;
#X connect 35 0 2 0;
#X connect 35 1 33 0;
#X connect 35 2 31 0;
#X connect 36 0 42 0;
#X connect 37 0 42 1;
#X connect 38 0 36 1;
#X connect 38 0 37 1;
#X connect 39 0 38 0;
#X connect 40 0 41 0;
#X connect 40 1 39 0;
#X connect 41 0 14 0;
#X connect 42 0 88 0;
#X connect 42 1 89 0;
#X connect 46 0 45 0;
#X connect 50 0 57 0;
#X connect 50 0 58 0;
#X connect 52 0 51 0;
#X connect 53 0 55 0;
#X connect 54 0 50 0;
#X connect 55 0 50 0;
#X connect 55 1 50 1;
#X connect 56 0 52 0;
#X connect 57 0 56 0;
#X connect 61 0 62 0;
#X connect 61 0 63 0;
#X connect 62 0 51 0;
#X connect 63 0 59 0;
#X connect 66 0 65 0;
#X connect 73 0 76 0;
#X connect 74 0 7 0;
#X connect 75 0 74 0;
#X connect 76 0 7 0;
#X connect 78 0 77 0;
#X connect 78 0 79 0;
#X connect 80 0 78 0;
#X connect 81 0 84 0;
#X connect 82 0 83 0;
#X connect 83 0 7 0;
#X connect 84 0 3 0;
#X connect 85 0 88 1;
#X connect 85 0 86 0;
#X connect 85 1 89 1;
#X connect 85 1 87 0;
#X connect 88 0 90 0;
#X connect 89 0 91 0;
#X connect 92 0 95 0;
#X connect 93 0 94 1;
#X connect 94 0 1 0;
#X connect 95 0 93 0;
#X restore 435 485 pd \$0-play_segments;
#N canvas 6 53 1268 686 \$0-preset_guts 0;
#X obj 550 604 s \$0-restore;
#X obj 888 140 r \$0-debug;
#X obj 660 40 s \$0-debug;
#X obj 659 21 bng 15 250 50 0 empty empty debug 17 7 0 10 -262144 -1
-1;
#X text 570 621 pdguts - datastore;
#X text 628 607 start/end;
#X obj 353 431 r \$0-presetname_load;
#X obj 98 338 deny enter_text_here------;
#X obj 352 451 t b s b;
#X obj 773 7 r \$0-presetname_load;
#X obj 852 78 s \$0-presetcanvas;
#X msg 853 55 label \$1;
#X obj 660 208 prepend add;
#X msg 633 490 clear;
#X msg 497 293 write \$1;
#X obj 469 559 route filename;
#X obj 408 328 s \$0-newentry;
#X obj 408 306 delay 1000;
#N canvas 6 76 1024 661 datasaving 0;
#X obj 242 242 symbol;
#X obj 266 200 r \$0-filename;
#X obj 399 194 table \$0-slices-start 100;
#X obj 399 214 table \$0-slices-end 100;
#X obj 108 219 f;
#X obj 135 221 + 1;
#X obj 108 197 until;
#X msg 146 191 0;
#X obj 108 166 t f b;
#X obj 108 242 t f f;
#X obj 108 277 tabread \$0-slices-end;
#X obj 94 85 r \$0-savetomsg;
#X text 402 174 memoria das seleções;
#X text 87 65 formata a mensagem do preset;
#X obj 402 46 r \$0-restore;
#X obj 402 66 route start end;
#X msg 109 145 16;
#X obj 273 220 tosymbol;
#X obj 122 512 outlet;
#X msg 267 270 filename \$1;
#X obj 5 247 f;
#X obj 32 249 + 1;
#X obj 5 225 until;
#X msg 41 215 0;
#X obj 5 194 t f b;
#X obj 5 270 t f f;
#X obj 38 351 pack 0 0;
#X msg 6 173 16;
#X obj 5 305 tabread \$0-slices-start;
#X msg -8 406 start \$2 \$1;
#X msg 111 379 end \$2 \$1;
#X obj 109 322 pack 0 0;
#X obj 92 105 t b b b;
#X obj 402 154 s \$0-slices-start;
#X obj 445 118 s \$0-slices-end;
#X text 398 28 restaurando slices (on load);
#N canvas 0 0 759 605 updatede_slices 0;
#X obj 165 302 s \$0-slices-start;
#X obj 165 280 pack 0 0;
#X obj 165 257 f;
#X obj 166 217 t b f;
#X obj 273 279 pack 0 0;
#X obj 273 256 f;
#X obj 274 216 t b f;
#X obj 273 303 s \$0-slices-end;
#X obj 71 165 r \$0-slice;
#X obj 90 358 tabread \$0-slices-start;
#X obj 71 189 t f f f;
#X obj 91 382 s \$0-start-r;
#X obj 71 412 tabread \$0-slices-end;
#X obj 72 436 s \$0-end-r;
#X obj 400 152 f;
#X obj 427 152 f;
#X obj 413 115 r \$0-start;
#X obj 481 114 r \$0-end;
#X obj 481 66 t b b;
#X obj 381 189 f;
#X obj 406 189 f;
#X obj 361 -114 r \$0-save;
#X obj 382 212 s \$0-start-r;
#X obj 464 212 s \$0-end-r;
#X obj 205 168 r \$0-start;
#X obj 315 161 r \$0-end;
#X obj 168 192 f;
#X obj 271 191 f;
#X obj 353 2 t b b b b;
#X msg 406 -48 1;
#X msg 433 -48 0;
#X obj 430 -13 s \$0-spigot;
#X obj 361 -88 t b b b b;
#X text 43 148 update do slice;
#X text 136 440 restaura o slider;
#X text 175 383 restaura o slider;
#X text 367 303 escreve o techo na tabela;
#X text 427 -113 acionado ao crregar novo nome;
#X connect 1 0 0 0;
#X connect 2 0 1 0;
#X connect 3 0 2 0;
#X connect 3 1 1 1;
#X connect 4 0 7 0;
#X connect 5 0 4 0;
#X connect 6 0 5 0;
#X connect 6 1 4 1;
#X connect 8 0 10 0;
#X connect 9 0 11 0;
#X connect 10 0 12 0;
#X connect 10 1 9 0;
#X connect 10 2 5 1;
#X connect 10 2 2 1;
#X connect 12 0 13 0;
#X connect 14 0 19 1;
#X connect 15 0 20 1;
#X connect 16 0 14 1;
#X connect 17 0 15 1;
#X connect 18 0 14 0;
#X connect 18 1 15 0;
#X connect 19 0 22 0;
#X connect 20 0 23 0;
#X connect 21 0 32 0;
#X connect 24 0 26 1;
#X connect 25 0 27 1;
#X connect 26 0 3 0;
#X connect 27 0 6 0;
#X connect 28 0 26 0;
#X connect 28 1 27 0;
#X connect 28 2 19 0;
#X connect 28 3 20 0;
#X connect 29 0 31 0;
#X connect 30 0 31 0;
#X connect 32 0 29 0;
#X connect 32 1 28 0;
#X connect 32 2 30 0;
#X connect 32 3 18 0;
#X restore 400 260 pd updatede_slices;
#X text 14 -97 a Matt Davey's patch;
#X text 18 -82 (thanks for sharing);
#X text -4 -112 data formatting and persistence based in;
#X connect 0 0 19 0;
#X connect 1 0 17 0;
#X connect 4 0 5 0;
#X connect 4 0 9 0;
#X connect 5 0 4 1;
#X connect 6 0 4 0;
#X connect 7 0 4 1;
#X connect 8 0 6 0;
#X connect 8 1 7 0;
#X connect 9 0 10 0;
#X connect 9 1 31 1;
#X connect 10 0 31 0;
#X connect 11 0 32 0;
#X connect 14 0 15 0;
#X connect 15 0 33 0;
#X connect 15 1 34 0;
#X connect 16 0 8 0;
#X connect 17 0 0 1;
#X connect 19 0 18 0;
#X connect 20 0 21 0;
#X connect 20 0 25 0;
#X connect 21 0 20 1;
#X connect 22 0 20 0;
#X connect 23 0 20 1;
#X connect 24 0 22 0;
#X connect 24 1 23 0;
#X connect 25 0 28 0;
#X connect 25 1 26 1;
#X connect 26 0 29 0;
#X connect 27 0 24 0;
#X connect 28 0 26 0;
#X connect 29 0 18 0;
#X connect 30 0 18 0;
#X connect 31 0 30 0;
#X connect 32 0 27 0;
#X connect 32 1 16 0;
#X connect 32 2 0 0;
#X restore 660 182 pd datasaving;
#X obj 446 599 s \$0-filename;
#X obj 128 644 s \$0-savetomsg;
#X obj 466 468 s \$0-cleartxt;
#X obj 633 469 r \$0-cleartxt;
#X obj 226 631 s \$0-cleartxt;
#X obj 27 645 s \$0-presetname;
#X obj 530 249 r \$0-presetname;
#X obj 497 271 symbol;
#X obj 120 614 t b b;
#X obj 462 248 delay 1000;
#X obj 462 225 bang;
#X obj 142 79 path;
#X obj 102 561 mergefilename /;
#X obj 102 539 pack s s;
#X obj 99 415 path;
#X obj 99 365 makefilename %s.nvl;
#X obj 102 586 t s b;
#X obj 99 394 t b s;
#X obj 181 56 tosymbol;
#X obj 182 18 loadbang;
#X msg 181 37 enter_text_here------;
#X obj 33 159 s \$0-presetname_load;
#X obj 33 136 openpanel;
#X obj 841 429 s \$0-presetcnv;
#X msg 916 402 color -1.11691e+07 -1 -1;
#X obj 917 378 loadbang;
#X msg 887 160 print;
#X obj 34 87 r \$0-preset_btn;
#X obj 98 319 r \$0-presetname_save-S;
#X obj 181 77 s \$0-presetname_save-R;
#N canvas 42 119 852 620 pathsplit 0;
#X obj 99 36 inlet;
#X obj 63 371 outlet;
#X obj 225 352 outlet;
#X obj 101 179 splitfilename;
#X text 191 181 iem lib;
#X obj 374 43 inlet;
#X msg 346 143 separator \$1;
#X obj 148 78 route bang;
#X obj 548 156 loadbang;
#X obj 548 186 dollarg;
#X obj 345 88 symbol;
#X msg 9 331 symbol /;
#X obj 13 286 sel symbol;
#X msg 64 257 symbol;
#X obj 208 311 sel symbol;
#X obj 210 265 t a b;
#X msg 259 282 symbol;
#X obj 130 131 tosymbol;
#X text 502 31 based on [file.path.split] - pdmtl;
#X connect 0 0 7 0;
#X connect 3 0 12 0;
#X connect 3 1 15 0;
#X connect 5 0 10 0;
#X connect 6 0 3 0;
#X connect 7 1 17 0;
#X connect 8 0 9 0;
#X connect 9 0 10 0;
#X connect 10 0 6 0;
#X connect 11 0 1 0;
#X connect 12 0 11 0;
#X connect 12 1 1 0;
#X connect 13 0 12 1;
#X connect 14 0 2 0;
#X connect 14 1 2 0;
#X connect 15 0 14 0;
#X connect 15 1 16 0;
#X connect 16 0 14 1;
#X connect 17 0 3 0;
#X restore 778 30 pd pathsplit;
#N canvas 24 137 553 521 txtflush 0;
#X obj 115 200 textfile;
#X msg 155 162 rewind;
#X obj 115 160 until;
#X obj 115 109 t b a;
#X msg 227 146 0;
#X obj 190 235 f;
#X obj 113 66 list prepend read;
#X obj 113 87 list trim;
#X obj 115 131 t b b b b;
#X obj 112 43 list append cr;
#X text 270 259 outputs the amount of lines when finished;
#X text 149 285 all lines of a file \, one after an other.;
#N canvas 0 0 450 300 f+1 0;
#X obj 141 241 + 1;
#X obj 110 241 f;
#X obj 110 195 inlet;
#X obj 110 276 outlet;
#X obj 154 195 inlet;
#X connect 0 0 1 1;
#X connect 1 0 0 0;
#X connect 1 0 3 0;
#X connect 2 0 1 0;
#X connect 4 0 1 1;
#X restore 205 191 pd f+1;
#X text 152 20 filename. output of lines starts instantly;
#X obj 190 259 outlet;
#X obj 100 284 outlet;
#X obj 111 21 inlet;
#X obj 267 83 inlet;
#X text 99 319 based on [readlines] Martin Schied 2009 \, (cc) share
alike;
#X connect 0 0 15 0;
#X connect 0 1 2 1;
#X connect 0 1 5 0;
#X connect 1 0 0 0;
#X connect 2 0 0 0;
#X connect 2 0 12 0;
#X connect 3 0 8 0;
#X connect 3 1 0 0;
#X connect 4 0 12 0;
#X connect 5 0 14 0;
#X connect 6 0 7 0;
#X connect 7 0 3 0;
#X connect 8 0 2 0;
#X connect 8 1 1 0;
#X connect 8 2 4 0;
#X connect 9 0 6 0;
#X connect 12 0 5 1;
#X connect 16 0 9 0;
#X connect 17 0 0 0;
#X restore 470 533 pd txtflush;
#X obj 38 115 symbol;
#X obj 142 126 mergefilename /;
#X msg 142 103 \$1 presets;
#X obj 39 489 mergefilename /;
#X msg 39 466 \$1 presets;
#X connect 1 0 45 0;
#X connect 3 0 2 0;
#X connect 6 0 8 0;
#X connect 7 0 34 0;
#X connect 8 1 50 0;
#X connect 8 2 21 0;
#X connect 9 0 49 0;
#X connect 11 0 10 0;
#X connect 12 0 29 0;
#X connect 12 0 50 1;
#X connect 13 0 50 1;
#X connect 14 0 50 1;
#X connect 15 0 19 0;
#X connect 15 1 0 0;
#X connect 17 0 16 0;
#X connect 18 0 12 0;
#X connect 22 0 13 0;
#X connect 25 0 26 1;
#X connect 26 0 14 0;
#X connect 27 0 20 0;
#X connect 27 1 23 0;
#X connect 28 0 26 0;
#X connect 28 0 17 0;
#X connect 29 0 28 0;
#X connect 30 0 53 0;
#X connect 31 0 35 0;
#X connect 32 0 31 0;
#X connect 33 0 55 0;
#X connect 34 0 36 0;
#X connect 35 0 24 0;
#X connect 35 1 27 0;
#X connect 36 0 33 0;
#X connect 36 1 32 1;
#X connect 37 0 48 0;
#X connect 38 0 39 0;
#X connect 38 0 30 0;
#X connect 39 0 37 0;
#X connect 41 0 40 0;
#X connect 43 0 42 0;
#X connect 44 0 43 0;
#X connect 45 0 50 1;
#X connect 46 0 51 0;
#X connect 47 0 7 0;
#X connect 49 1 11 0;
#X connect 50 0 15 0;
#X connect 51 0 41 0;
#X connect 52 0 51 1;
#X connect 53 0 52 0;
#X connect 54 0 32 0;
#X connect 55 0 54 0;
#X restore 906 284 pd \$0-preset_guts;
#X obj 789 500 r \$0-timestretch_btn;
#X obj 792 573 r \$0-sequencer_btn;
#X msg 790 527 vis 1;
#X obj 790 549 s pd-\$0-timestretch_guts;
#X msg 795 596 vis 1;
#X obj 793 618 s pd-\$0-sequencer_guts;
#X obj 429 519 outlet~;
#X obj 525 523 outlet~;
#X text 92 456 to do (ainda nao implementado):;
#X obj 489 301 bng 15 250 50 0 \$0-random empty random 0 22 0 10 -262144
-1 -262144;
#X obj 449 300 bng 15 250 50 0 \$0-> empty > 0 -7 0 15 -262144 -1 -262144
;
#X obj 467 300 bng 15 250 50 0 \$0-< empty < 0 -7 0 15 -262144 -1 -262144
;
#X obj 546 304 bng 12 250 50 0 \$0-seqzero empty 0 0 -7 0 10 -262144
-1 -262144;
#X obj 506 301 nbx 2 15 0 16 0 0 \$0-randomfactor empty empty 0 -8
0 15 -4160 -203904 -1 0 256;
#X connect 25 0 58 0;
#X connect 58 0 56 0;
#X connect 63 0 71 0;
#X connect 63 1 72 0;
#X connect 65 0 67 0;
#X connect 66 0 69 0;
#X connect 67 0 68 0;
#X connect 69 0 70 0;
#X coords 0 -1 1 1 805 280 2 100 100;
